<?xml version="1.0" standalone="no"?>
<!DOCTYPE svg PUBLIC "-//W3C//DTD SVG 20010904//EN"
 "http://www.w3.org/TR/2001/REC-SVG-20010904/DTD/svg10.dtd">
<svg version="1.0" xmlns="http://www.w3.org/2000/svg"
 width="1024.000000pt" height="1024.000000pt" viewBox="0 0 1024.000000 1024.000000"
 preserveAspectRatio="xMidYMid meet">

<g transform="translate(0.000000,1024.000000) scale(0.100000,-0.100000)"
fill="#000000" stroke="none">
<path d="M7170 8193 c-14 -3 -31 -10 -39 -16 -7 -6 -19 -12 -26 -13 -38 -6
-155 -124 -155 -156 0 -9 -6 -21 -14 -25 -56 -33 -116 -302 -100 -447 l7 -58
30 68 c16 38 30 74 30 81 0 7 4 10 8 8 3 -3 13 10 20 28 7 17 29 59 47 92 19
33 35 65 35 72 0 7 3 10 7 8 3 -2 17 14 30 35 14 22 30 42 37 44 17 7 17 6 -7
-49 -11 -26 -17 -52 -13 -57 3 -6 1 -8 -4 -5 -6 4 -20 -15 -32 -44 -19 -42
-20 -53 -9 -67 11 -15 11 -15 -3 -4 -14 11 -22 -1 -63 -99 -25 -62 -44 -114
-42 -117 9 -9 106 70 99 80 -3 6 -2 8 4 5 11 -7 157 142 149 151 -3 2 3 12 13
21 28 24 60 77 41 67 -8 -4 -6 0 4 8 11 9 16 16 10 16 -5 0 -4 4 2 8 17 12 53
98 69 165 21 88 20 160 -3 180 -20 18 -91 29 -132 20z m-116 -98 c-10 -7 -22
-11 -27 -8 -12 7 0 19 23 20 21 2 21 1 4 -12z"/>
<path d="M5029 8096 c-89 -16 -182 -42 -222 -63 -52 -27 -106 -83 -111 -116
-3 -18 -8 -363 -11 -767 -3 -404 -8 -834 -11 -955 l-7 -220 29 -15 c41 -19
368 -26 489 -10 242 33 398 130 479 300 29 60 31 73 31 170 0 129 -21 185 -97
256 -52 48 -185 117 -250 129 -21 4 -36 11 -33 15 2 4 39 20 82 35 198 69 337
175 426 322 75 126 100 206 101 338 1 126 -12 190 -59 290 -60 125 -183 227
-332 276 -58 19 -95 22 -248 25 -118 2 -206 -2 -256 -10z m310 -252 c67 -20
131 -78 162 -147 30 -66 33 -203 7 -287 -36 -117 -127 -235 -241 -312 -54 -37
-214 -118 -233 -118 -4 0 -4 84 0 188 4 103 11 297 16 432 5 135 9 246 10 247
3 17 220 15 279 -3z m-166 -1261 c46 -27 79 -98 85 -188 9 -148 -43 -216 -181
-235 -43 -6 -65 -6 -75 2 -11 10 -13 52 -10 221 1 115 5 212 8 216 15 24 121
14 173 -16z"/>
<path d="M4123 7960 c-96 -20 -160 -73 -192 -160 -38 -105 -195 -711 -301
-1165 -33 -143 -63 -271 -66 -285 -5 -22 -11 -15 -44 55 -21 44 -50 96 -64
115 -57 75 -217 227 -356 338 -195 155 -308 269 -348 352 -59 118 -52 209 19
263 85 64 191 58 274 -15 39 -35 75 -83 75 -103 0 -3 -11 -3 -24 1 -19 4 -33
-2 -61 -28 -32 -29 -38 -42 -42 -85 -7 -65 9 -111 52 -153 27 -26 44 -34 84
-38 67 -6 112 22 148 92 24 45 27 62 26 151 0 210 -83 349 -236 401 -78 27
-215 24 -292 -6 -269 -103 -351 -388 -200 -695 66 -132 125 -205 336 -408 256
-246 306 -320 316 -467 11 -167 -84 -288 -262 -335 -198 -51 -429 44 -546 226
-38 60 -63 173 -50 229 12 55 35 88 76 107 49 23 61 14 69 -55 9 -76 34 -112
80 -112 42 0 74 24 97 74 62 136 -45 274 -195 251 -126 -20 -209 -78 -265
-188 -115 -227 -20 -526 213 -666 111 -66 286 -111 436 -111 83 0 225 30 315
65 73 29 187 99 219 134 30 33 35 25 20 -31 -7 -29 -14 -68 -14 -87 l0 -34 42
7 c24 4 56 15 73 24 26 15 31 26 39 77 5 33 27 172 50 310 l41 249 125 22 c69
12 128 19 132 15 3 -3 16 -94 27 -201 23 -213 35 -273 57 -307 43 -67 260 -46
355 35 l39 34 0 966 c0 634 -4 980 -10 1004 -28 100 -148 162 -267 138z m-126
-642 c-4 -79 -10 -292 -13 -474 l-7 -332 -66 -10 c-121 -20 -201 -26 -201 -14
0 19 91 463 125 612 18 80 44 191 56 247 23 107 25 110 83 112 l29 1 -6 -142z"/>
<path d="M6228 7837 c8 -10 6 -13 -8 -13 -10 0 -16 4 -13 10 17 26 -63 -34
-83 -63 -22 -33 -23 -36 -6 -55 16 -20 16 -20 -1 -6 -16 12 -20 12 -27 0 -30
-49 -12 -197 24 -194 13 2 14 -1 5 -12 -8 -10 -1 -24 36 -61 26 -26 44 -41 40
-33 -4 8 2 5 12 -6 39 -47 207 -112 368 -145 129 -25 147 -23 109 11 -20 18
-24 19 -14 5 14 -19 14 -19 -5 -3 -11 9 -24 17 -28 16 -5 0 -12 4 -15 8 -4 4
-2 4 5 0 6 -3 14 -2 18 4 3 5 -1 10 -10 10 -10 0 -13 5 -9 12 4 6 3 8 -3 5 -6
-4 -14 0 -17 9 -3 9 -13 14 -21 11 -8 -4 -12 -1 -9 7 6 17 -32 50 -50 43 -10
-4 -13 -1 -10 8 4 9 -24 44 -72 92 -42 43 -77 81 -76 85 1 3 -6 12 -16 20 -15
11 -16 11 -5 -3 10 -13 10 -16 -1 -16 -8 0 -13 8 -11 18 2 10 0 21 -6 24 -14
9 -11 22 8 29 10 4 14 4 11 0 -8 -7 79 -69 97 -69 5 0 10 -4 10 -10 0 -21 18
-36 33 -30 9 3 13 3 9 -1 -11 -12 103 -123 119 -117 10 4 12 0 8 -11 -3 -9 -1
-16 5 -16 6 0 11 -6 11 -13 0 -18 36 -51 48 -43 5 3 9 -1 9 -9 0 -8 -5 -11
-11 -8 -6 3 0 -7 14 -23 14 -16 27 -33 31 -37 10 -13 8 25 -7 116 -15 92 -54
193 -69 180 -4 -5 -5 -3 -1 4 7 12 -19 71 -48 108 -14 17 -17 18 -27 5 -9 -13
-10 -13 -6 0 12 41 -70 114 -171 153 -53 21 -190 24 -174 4z m217 -57 c3 -6
-1 -7 -9 -4 -18 7 -21 14 -7 14 6 0 13 -4 16 -10z m70 -30 c-3 -5 -12 -10 -18
-10 -7 0 -6 4 3 10 19 12 23 12 15 0z m31 -26 c2 -12 -1 -13 -12 -3 -7 6 -11
16 -8 21 7 11 17 3 20 -18z m55 -97 c-10 -9 -11 -8 -5 6 3 10 9 15 12 12 3 -3
0 -11 -7 -18z m29 -127 c0 -5 -2 -10 -4 -10 -3 0 -8 5 -11 10 -3 6 -1 10 4 10
6 0 11 -4 11 -10z"/>
<path d="M6945 7360 c-76 -11 -94 -19 -100 -43 -7 -36 -33 -297 -70 -727 -20
-223 -45 -510 -57 -639 -24 -263 -27 -249 52 -271 52 -15 180 -13 185 3 4 11
36 374 52 582 8 111 12 115 61 63 83 -87 127 -197 192 -488 23 -102 54 -221
69 -266 59 -172 151 -293 266 -350 54 -26 70 -29 160 -29 90 0 106 3 158 28
77 38 163 120 210 198 42 72 46 94 18 109 -27 14 -25 15 -85 -40 -72 -64 -109
-83 -171 -84 -39 0 -63 7 -98 28 -87 50 -120 116 -201 398 -25 87 -59 187 -75
222 -40 88 -112 198 -172 261 l-50 53 44 6 c24 4 75 22 113 40 236 113 353
479 237 739 -66 148 -247 219 -552 216 -75 -1 -159 -5 -186 -9z m310 -218 c79
-37 138 -94 167 -160 16 -37 19 -62 16 -117 -8 -122 -62 -206 -171 -262 -45
-23 -64 -27 -142 -27 l-89 -1 2 45 c6 105 43 536 48 549 7 22 92 8 169 -27z"/>
<path d="M6154 7111 c-89 -22 -211 -168 -290 -348 -65 -146 -103 -439 -75
-573 27 -127 110 -241 218 -296 53 -27 67 -29 163 -29 96 0 110 3 159 28 103
55 181 161 240 328 38 108 49 160 61 291 19 213 -31 430 -123 535 -57 64 -114
79 -162 41 -39 -30 -55 -76 -55 -155 0 -79 21 -122 74 -154 53 -31 61 -63 61
-244 -1 -181 -21 -288 -74 -392 -33 -67 -52 -86 -104 -108 -76 -32 -156 -8
-190 58 -45 88 -42 268 9 466 30 117 60 183 119 267 65 94 74 115 81 191 5 54
3 71 -8 81 -20 16 -67 22 -104 13z"/>
<path d="M8120 6072 c-49 -15 -81 -36 -75 -50 4 -12 3 -12 -9 -3 -19 16 -81
-41 -71 -67 5 -13 3 -14 -6 -5 -9 9 -17 5 -36 -18 -14 -16 -28 -29 -33 -29 -4
0 -11 20 -15 45 -4 29 -10 43 -17 39 -6 -4 -8 -3 -5 3 9 14 -14 83 -28 83 -17
0 -36 -71 -42 -156 -6 -78 10 -203 33 -263 l14 -36 -5 55 c-5 65 -7 137 -5
200 2 71 18 21 25 -82 4 -49 11 -88 15 -88 5 0 14 16 20 35 6 19 31 63 54 97
24 35 43 67 44 71 1 17 12 19 18 4 3 -9 -23 -82 -59 -166 l-65 -151 37 29 c93
75 180 219 216 359 19 72 17 101 -5 94z m-124 -117 c-1 -8 -5 -17 -8 -21 -5
-4 -4 16 1 34 3 9 9 -1 7 -13z"/>
<path d="M5710 5806 c0 -2 9 -6 20 -9 11 -3 18 -1 14 4 -5 9 -34 13 -34 5z"/>
<path d="M5760 5787 c0 -9 5 -17 10 -17 6 0 10 -9 10 -19 0 -11 -4 -23 -10
-26 -5 -3 -10 -11 -10 -18 0 -6 7 -2 15 9 19 25 19 11 0 -26 -9 -17 -11 -30
-6 -30 5 0 14 13 21 29 12 31 7 62 -16 96 -12 17 -14 17 -14 2z"/>
<path d="M5208 5773 c7 -3 16 -2 19 1 4 3 -2 6 -13 5 -11 0 -14 -3 -6 -6z"/>
<path d="M5270 5763 c14 -9 26 -17 28 -19 2 -1 -2 -12 -8 -24 -9 -17 -9 -25 1
-34 9 -8 10 -8 5 1 -10 18 5 45 23 39 9 -3 0 8 -19 24 -19 17 -39 30 -44 30
-6 0 1 -8 14 -17z"/>
<path d="M5174 5756 c1 -8 5 -18 8 -22 4 -3 5 1 4 10 -1 8 -5 18 -8 22 -4 3
-5 -1 -4 -10z"/>
<path d="M5913 5748 c-6 -7 -9 -26 -8 -43 5 -111 8 -138 12 -121 4 15 7 16 14
5 6 -10 9 -8 9 9 0 13 -4 20 -10 17 -5 -3 -10 3 -10 15 0 11 7 23 15 26 8 4
12 11 8 18 -4 6 -8 16 -8 21 -1 6 -7 9 -14 7 -15 -3 -5 39 13 50 8 6 8 8 0 8
-6 0 -16 -6 -21 -12z"/>
<path d="M5145 5706 c11 -8 15 -16 8 -16 -8 0 -12 -13 -12 -32 2 -32 2 -32 6
-5 3 21 9 27 20 23 14 -6 14 -4 1 16 -8 12 -21 24 -29 26 -8 2 -5 -3 6 -12z"/>
<path d="M6085 5711 c3 -5 -3 -12 -12 -14 -10 -3 -6 -4 9 -4 21 1 24 4 16 14
-12 15 -22 18 -13 4z"/>
<path d="M6303 5713 c9 -2 25 -2 35 0 9 3 1 5 -18 5 -19 0 -27 -2 -17 -5z"/>
<path d="M4741 5701 c-8 -5 -9 -11 -3 -15 6 -3 13 -2 16 3 3 5 16 7 29 4 18
-4 19 -3 7 6 -18 13 -31 13 -49 2z"/>
<path d="M6224 5703 c3 -3 0 -13 -7 -21 -8 -11 -8 -14 0 -9 6 4 13 1 15 -8 2
-10 7 -12 18 -5 13 9 13 11 0 20 -13 8 -12 10 4 10 24 0 16 9 -14 15 -12 2
-20 2 -16 -2z"/>
<path d="M6360 5701 c0 -15 33 -22 44 -10 8 9 8 10 -1 5 -6 -3 -14 -2 -18 4
-8 12 -25 13 -25 1z"/>
<path d="M4558 5657 c16 -7 26 -7 34 1 8 8 2 10 -23 10 -31 -1 -32 -2 -11 -11z"/>
<path d="M4992 5650 c0 -14 2 -19 5 -12 2 6 2 18 0 25 -3 6 -5 1 -5 -13z"/>
<path d="M4610 5650 c0 -5 -7 -10 -15 -10 -8 0 -15 -5 -15 -11 0 -7 10 -9 25
-5 16 4 25 2 25 -5 0 -7 2 -10 5 -8 7 8 -6 49 -16 49 -5 0 -9 -4 -9 -10z"/>
<path d="M4415 5641 l-30 -7 36 -5 c27 -3 35 -1 32 8 -3 7 -6 12 -7 12 0 -1
-14 -4 -31 -8z"/>
<path d="M5776 5626 c-3 -14 -4 -32 -1 -40 17 -53 16 -51 25 -36 6 8 9 31 9
50 l-2 35 -7 -35 c-7 -35 -14 -18 -10 28 2 29 -6 28 -14 -2z"/>
<path d="M6220 5597 c0 -20 4 -38 9 -41 5 -3 7 11 4 32 -7 49 -13 54 -13 9z"/>
<path d="M6447 5619 c7 -7 15 -10 18 -7 3 3 -2 9 -12 12 -14 6 -15 5 -6 -5z"/>
<path d="M6490 5626 c0 -2 8 -10 18 -17 15 -13 16 -12 3 4 -13 16 -21 21 -21
13z"/>
<path d="M4538 5613 c7 -3 16 -2 19 1 4 3 -2 6 -13 5 -11 0 -14 -3 -6 -6z"/>
<path d="M5156 5605 c-3 -9 -6 -26 -5 -38 1 -14 4 -9 9 13 9 37 7 52 -4 25z"/>
<path d="M2199 5574 c-14 -37 -5 -187 20 -314 11 -52 17 -97 15 -99 -2 -2 -4
2 -4 10 0 12 -2 11 -11 -1 -9 -12 -10 -13 -7 0 6 21 -29 57 -89 91 -64 37
-176 82 -167 67 4 -5 -4 -3 -17 5 -29 19 -99 31 -116 19 -10 -6 -10 -20 2 -67
18 -66 82 -194 102 -202 7 -3 11 -9 8 -13 -5 -9 54 -92 90 -125 109 -104 251
-181 373 -204 45 -9 53 -2 25 20 -11 10 -14 10 -9 2 4 -7 5 -13 2 -13 -3 0
-10 10 -17 21 -9 17 -8 20 3 13 10 -6 10 -4 -1 10 -8 9 -20 15 -27 12 -17 -6
-28 10 -14 19 8 5 7 11 -1 21 -10 12 -14 12 -21 2 -7 -10 -9 -10 -5 2 6 21
-12 52 -25 44 -6 -4 -8 -3 -4 4 7 12 -149 159 -165 154 -6 -1 -8 2 -5 7 3 5
-28 35 -69 67 -78 62 -96 86 -45 59 17 -9 36 -13 42 -9 7 4 8 3 4 -4 -7 -11 6
-17 27 -13 5 1 5 -4 1 -10 -5 -9 -2 -10 10 -6 9 4 15 3 12 -1 -2 -4 18 -20 45
-35 27 -16 49 -26 49 -23 0 6 83 -68 133 -119 25 -26 33 -31 23 -14 -9 14 -13
29 -9 34 5 4 3 5 -3 2 -13 -8 -39 19 -27 26 13 8 8 62 -16 166 -12 51 -19 96
-16 99 7 8 5 12 68 -153 32 -82 62 -152 68 -153 5 -2 7 -7 4 -12 -3 -4 2 -25
9 -46 l15 -39 0 58 c2 121 -40 303 -99 433 -23 52 -114 198 -141 228 -5 5 -13
-3 -20 -20z m-326 -261 c-7 -2 -19 -2 -25 0 -7 3 -2 5 12 5 14 0 19 -2 13 -5z
m54 -9 c-3 -3 -12 -4 -19 -1 -8 3 -5 6 6 6 11 1 17 -2 13 -5z m188 -52 c-3 -3
3 -11 13 -19 16 -12 16 -13 -2 -6 -15 5 -17 3 -11 -8 5 -8 -1 -6 -13 5 -23 20
-22 33 3 33 8 0 13 -3 10 -5z m65 -56 c0 -2 -8 -10 -17 -17 -16 -13 -17 -12
-4 4 13 16 21 21 21 13z m-63 -130 c0 -8 -6 -12 -15 -9 -11 5 -11 7 0 14 7 5
13 9 14 9 0 0 1 -6 1 -14z"/>
<path d="M4575 5590 c-3 -5 1 -10 9 -10 9 0 16 5 16 10 0 6 -4 10 -9 10 -6 0
-13 -4 -16 -10z"/>
<path d="M5623 5520 c0 -47 2 -66 4 -42 2 23 2 61 0 85 -2 23 -4 4 -4 -43z"/>
<path d="M5751 5566 c-1 -29 2 -37 10 -29 8 8 8 19 1 40 -10 28 -10 28 -11
-11z"/>
<path d="M6411 5574 c0 -11 3 -14 6 -6 3 7 2 16 -1 19 -3 4 -6 -2 -5 -13z"/>
<path d="M4119 5572 c12 -8 11 -11 -3 -15 -15 -4 -15 -5 1 -3 19 1 21 19 1 24
-10 3 -10 1 1 -6z"/>
<path d="M4218 5573 c7 -3 16 -2 19 1 4 3 -2 6 -13 5 -11 0 -14 -3 -6 -6z"/>
<path d="M6331 5564 c0 -11 3 -14 6 -6 3 7 2 16 -1 19 -3 4 -6 -2 -5 -13z"/>
<path d="M6377 5565 c3 -8 9 -12 14 -9 12 7 11 11 -5 17 -10 4 -13 1 -9 -8z"/>
<path d="M5001 5554 c0 -11 3 -14 6 -6 3 7 2 16 -1 19 -3 4 -6 -2 -5 -13z"/>
<path d="M6353 5545 c-3 -9 -3 -19 0 -22 4 -3 2 -14 -4 -24 -6 -13 -5 -28 5
-51 l14 -33 -5 42 c-4 28 -1 49 8 60 12 14 12 16 0 8 -11 -6 -13 -3 -9 13 7
25 0 30 -9 7z"/>
<path d="M6433 5545 c0 -8 4 -12 9 -9 4 3 8 9 8 15 0 5 -4 9 -8 9 -5 0 -9 -7
-9 -15z"/>
<path d="M5928 5544 c-9 -19 -2 -49 12 -50 8 -1 21 -2 28 -3 6 0 12 -6 12 -12
0 -6 -6 -9 -13 -6 -27 10 -39 -8 -17 -28 13 -12 20 -14 20 -5 0 10 4 9 18 -1
15 -12 16 -12 4 2 -7 9 -10 23 -6 32 6 17 -23 37 -43 30 -7 -3 -13 0 -13 5 0
6 4 12 10 14 5 2 6 9 1 17 -5 7 -10 9 -13 5z"/>
<path d="M6213 5485 c0 -38 2 -53 4 -32 2 20 2 52 0 70 -2 17 -4 1 -4 -38z"/>
<path d="M4108 5533 c7 -3 16 -2 19 1 4 3 -2 6 -13 5 -11 0 -14 -3 -6 -6z"/>
<path d="M6475 5520 c4 -6 11 -8 16 -4 6 3 8 -6 5 -22 -4 -20 -2 -24 6 -16 6
6 18 8 27 5 14 -4 13 -2 -1 10 -10 8 -18 19 -18 26 0 6 -9 11 -21 11 -11 0
-17 -5 -14 -10z"/>
<path d="M3846 5505 c-11 -8 -15 -15 -10 -15 6 0 19 7 30 15 10 8 15 14 9 14
-5 0 -19 -6 -29 -14z"/>
<path d="M4548 5513 c7 -3 16 -2 19 1 4 3 -2 6 -13 5 -11 0 -14 -3 -6 -6z"/>
<path d="M4960 5510 c0 -6 5 -8 10 -5 6 3 10 4 10 0 0 -3 -10 -10 -22 -15 -22
-8 -22 -9 5 -9 21 -1 28 3 25 16 -3 19 -28 31 -28 13z"/>
<path d="M5745 5481 c0 -46 13 -41 19 7 2 19 -1 32 -8 32 -6 0 -11 -17 -11
-39z"/>
<path d="M4532 5484 c-12 -8 -22 -21 -22 -27 0 -8 3 -8 9 1 4 7 26 20 47 27
32 12 35 14 14 15 -14 0 -36 -7 -48 -16z"/>
<path d="M6382 5470 c0 -19 2 -27 5 -17 2 9 2 25 0 35 -3 9 -5 1 -5 -18z"/>
<path d="M3845 5480 c-13 -6 -15 -9 -5 -9 8 0 22 4 30 9 18 12 2 12 -25 0z"/>
<path d="M5163 5455 c0 -22 2 -30 4 -17 2 12 2 30 0 40 -3 9 -5 -1 -4 -23z"/>
<path d="M4597 5469 c7 -7 15 -10 18 -7 3 3 -2 9 -12 12 -14 6 -15 5 -6 -5z"/>
<path d="M4808 5473 c7 -3 16 -2 19 1 4 3 -2 6 -13 5 -11 0 -14 -3 -6 -6z"/>
<path d="M6536 5449 c-11 -19 -14 -29 -6 -24 10 6 12 3 7 -11 -7 -18 -7 -18 8
0 11 15 15 16 15 5 0 -8 -6 -21 -12 -28 -11 -11 -10 -12 1 -6 10 6 12 2 7 -13
-7 -20 9 -40 22 -28 11 12 1 91 -13 99 -8 4 -12 14 -9 22 10 25 -1 17 -20 -16z"/>
<path d="M3666 5461 c-11 -4 -15 -10 -9 -14 5 -3 19 0 29 8 20 15 11 18 -20 6z"/>
<path d="M4539 5453 c-13 -16 -12 -17 4 -4 16 13 21 21 13 21 -2 0 -10 -8 -17
-17z"/>
<path d="M6045 5460 c-5 -9 -4 -11 3 -6 7 4 12 1 12 -8 0 -8 -6 -16 -12 -19
-7 -2 -10 -7 -7 -11 3 -3 13 0 23 7 14 11 15 15 3 31 -11 15 -16 16 -22 6z"/>
<path d="M3815 5450 c-16 -7 -17 -9 -3 -9 9 -1 20 4 23 9 7 11 7 11 -20 0z"/>
<path d="M3868 5453 c12 -2 20 -9 17 -14 -3 -5 1 -6 10 -2 13 5 14 7 3 14 -7
5 -22 8 -33 7 -17 -1 -17 -1 3 -5z"/>
<path d="M5809 5418 c4 -28 6 -29 9 -9 2 13 0 27 -5 32 -6 6 -7 -3 -4 -23z"/>
<path d="M2943 5425 c11 -7 25 -11 33 -8 22 8 6 23 -24 23 -25 -1 -26 -2 -9
-15z"/>
<path d="M3989 5428 c-8 -7 -12 -12 -10 -11 2 2 10 -2 16 -7 8 -7 20 -7 36 0
23 10 22 10 -5 5 -23 -5 -27 -3 -23 9 8 19 5 20 -14 4z"/>
<path d="M4068 5433 c6 -2 18 -2 25 0 6 3 1 5 -13 5 -14 0 -19 -2 -12 -5z"/>
<path d="M4240 5432 c0 -6 -8 -12 -17 -15 -10 -2 -3 -4 15 -4 18 0 30 3 25 6
-4 3 -11 10 -15 15 -5 5 -8 5 -8 -2z"/>
<path d="M5640 5421 c0 -25 6 -27 13 -6 4 8 2 17 -3 20 -6 4 -10 -3 -10 -14z"/>
<path d="M3010 5420 c8 -5 20 -10 25 -10 6 0 3 5 -5 10 -8 5 -19 10 -25 10 -5
0 -3 -5 5 -10z"/>
<path d="M6978 5410 c6 -9 9 -20 5 -23 -3 -4 0 -7 8 -7 11 0 12 -2 1 -9 -11
-7 -11 -9 2 -14 24 -9 20 18 -6 45 -13 13 -17 17 -10 8z"/>
<path d="M2815 5410 c-3 -5 -1 -10 4 -10 6 0 11 5 11 10 0 6 -2 10 -4 10 -3 0
-8 -4 -11 -10z"/>
<path d="M3800 5395 c-12 -13 -19 -28 -15 -34 9 -15 -8 -14 -24 2 -9 8 -12 8
-7 0 3 -6 0 -13 -6 -16 -7 -2 6 -4 30 -4 23 0 42 4 42 10 0 5 7 7 15 3 17 -6
21 19 5 29 -6 4 -8 10 -5 15 13 21 -14 17 -35 -5z"/>
<path d="M3855 5410 c-9 -14 18 -50 37 -50 10 0 18 5 18 11 0 7 10 9 26 5 17
-5 23 -3 19 4 -3 6 4 10 17 11 22 0 22 1 3 9 -28 12 -37 12 -30 0 3 -5 -1 -10
-10 -10 -11 0 -15 5 -11 15 7 20 -4 19 -18 -1 -12 -16 -51 -9 -40 7 3 5 3 9 0
9 -3 0 -7 -4 -11 -10z"/>
<path d="M6641 5404 c0 -11 3 -14 6 -6 3 7 2 16 -1 19 -3 4 -6 -2 -5 -13z"/>
<path d="M6663 5387 c2 -33 3 -35 15 -20 11 16 14 16 23 3 9 -13 10 -13 6 0
-2 8 -10 15 -18 15 -8 0 -17 9 -21 20 -4 13 -6 6 -5 -18z"/>
<path d="M2790 5391 c0 -6 -6 -11 -13 -11 -14 0 -67 -51 -67 -64 0 -4 -9 -19
-20 -33 -11 -14 -17 -30 -14 -35 4 -6 10 -5 15 3 4 7 5 17 2 23 -3 5 -1 6 5 2
9 -5 9 -13 0 -29 -6 -12 -11 -37 -9 -54 1 -18 -3 -33 -8 -33 -5 0 -7 18 -5 40
2 22 0 40 -5 40 -5 0 -9 -25 -10 -55 -1 -52 4 -60 31 -56 4 0 4 -7 1 -16 -4
-11 -8 -13 -11 -5 -2 7 -8 12 -14 12 -7 0 -9 -19 -5 -54 3 -34 1 -58 -6 -65
-8 -8 -7 -16 6 -28 9 -9 20 -13 24 -9 5 5 2 11 -4 13 -7 3 -13 12 -13 21 0 30
23 -5 25 -37 1 -25 -1 -29 -12 -19 -19 16 -27 3 -9 -15 8 -8 13 -16 12 -18 -2
-2 2 -9 9 -16 10 -10 14 -9 19 2 3 8 2 15 -2 15 -4 0 -8 11 -8 25 -1 14 2 22
8 19 5 -3 1 11 -8 33 -9 21 -18 52 -19 68 -2 27 -2 27 2 3 8 -55 18 -27 16 47
-1 41 3 77 8 80 5 4 9 11 9 16 0 6 -5 7 -12 3 -8 -5 -8 -3 -2 7 5 8 9 28 9 44
0 27 3 30 30 29 l30 -2 -27 11 -27 11 22 11 c13 7 22 20 21 33 0 16 2 20 10
12 7 -7 7 -17 -3 -32 -11 -17 -11 -22 1 -29 18 -12 28 -11 28 2 0 5 -4 7 -10
4 -5 -3 -10 -3 -10 2 0 14 16 34 26 32 27 -5 36 1 24 16 -10 12 -16 13 -27 3
-11 -9 -13 -8 -11 3 2 8 7 17 12 20 4 4 3 10 -3 13 -6 4 -11 2 -11 -3z m-40
-51 c-6 -11 -16 -20 -22 -20 -6 0 -3 9 7 20 10 11 20 20 22 20 2 0 -1 -9 -7
-20z"/>
<path d="M2965 5390 c-3 -6 1 -7 9 -4 18 7 21 14 7 14 -6 0 -13 -4 -16 -10z"/>
<path d="M3047 5380 c3 -11 9 -20 15 -20 5 0 4 9 -2 20 -6 11 -12 20 -14 20
-2 0 -2 -9 1 -20z"/>
<path d="M3512 5384 c-7 -13 -13 -14 -31 -4 -17 9 -26 9 -37 -1 -8 -6 -14 -8
-14 -3 0 4 -9 -2 -20 -14 -25 -26 -26 -36 -2 -28 15 5 15 5 -1 -8 -15 -12 -16
-17 -6 -34 14 -22 6 -52 -13 -52 -9 0 -9 3 0 12 17 17 15 37 -3 34 -24 -3 -27
-13 -20 -57 4 -25 10 -37 15 -29 6 10 9 9 12 -1 4 -11 9 -11 24 3 10 9 22 17
26 18 25 3 38 14 33 28 -4 11 -2 12 7 5 9 -7 21 -2 40 18 15 16 23 29 18 29
-4 0 -17 3 -27 7 -15 6 -16 4 -5 -9 16 -20 -6 -42 -28 -28 -23 15 -29 12 -25
-10 2 -11 0 -22 -4 -24 -7 -5 -11 17 -13 69 -2 53 1 67 14 59 7 -5 8 -3 3 6
-6 9 -4 12 6 8 8 -3 22 -9 31 -13 11 -4 20 0 28 14 13 24 5 29 -8 5z m-82 -80
c0 -8 -5 -12 -10 -9 -6 4 -8 11 -5 16 9 14 15 11 15 -7z"/>
<path d="M4058 5393 c7 -3 16 -2 19 1 4 3 -2 6 -13 5 -11 0 -14 -3 -6 -6z"/>
<path d="M2830 5379 c0 -5 5 -7 10 -4 6 3 10 8 10 11 0 2 -4 4 -10 4 -5 0 -10
-5 -10 -11z"/>
<path d="M4313 5335 c0 -33 2 -45 4 -27 2 18 2 45 0 60 -2 15 -4 0 -4 -33z"/>
<path d="M6221 4953 c0 -241 5 -447 10 -458 7 -15 8 -9 6 22 -1 24 1 44 6 46
4 1 9 38 9 82 1 56 3 71 8 50 5 -18 8 13 7 80 0 73 -2 96 -7 70 -8 -49 -20
150 -23 388 -1 86 -5 157 -9 157 -4 0 -7 -197 -7 -437z m32 -191 c-6 -4 -13
-21 -15 -37 -2 -17 -5 1 -5 39 l-1 68 16 -32 c10 -22 12 -34 5 -38z m-11 -117
c0 -20 -2 -39 -5 -41 -3 -3 -5 15 -5 41 0 26 2 44 5 42 3 -3 5 -22 5 -42z"/>
<path d="M4532 5340 c0 -14 2 -19 5 -12 2 6 2 18 0 25 -3 6 -5 1 -5 -13z"/>
<path d="M5801 5344 c0 -11 3 -14 6 -6 3 7 2 16 -1 19 -3 4 -6 -2 -5 -13z"/>
<path d="M5421 5334 c0 -11 3 -14 6 -6 3 7 2 16 -1 19 -3 4 -6 -2 -5 -13z"/>
<path d="M6590 5343 c0 -5 5 -15 10 -23 8 -12 10 -11 10 8 0 12 -4 22 -10 22
-5 0 -10 -3 -10 -7z"/>
<path d="M6631 5334 c0 -11 3 -14 6 -6 3 7 2 16 -1 19 -3 4 -6 -2 -5 -13z"/>
<path d="M3470 5330 c0 -5 5 -10 11 -10 5 0 7 5 4 10 -3 6 -8 10 -11 10 -2 0
-4 -4 -4 -10z"/>
<path d="M3605 5329 c-11 -16 -1 -19 13 -3 7 8 8 14 3 14 -5 0 -13 -5 -16 -11z"/>
<path d="M6853 5333 c-7 -3 -9 -13 -3 -32 4 -15 6 -52 4 -81 -2 -47 -2 -50 5
-20 6 23 7 3 4 -60 -2 -52 0 -158 5 -235 l9 -140 2 98 c1 75 4 97 15 97 18 0
30 48 17 64 -6 7 -11 36 -12 64 -1 28 -5 50 -8 48 -3 -2 -7 18 -8 45 -1 28 2
47 8 44 5 -4 9 -2 9 4 0 5 3 18 7 28 6 15 4 16 -9 6 -12 -11 -17 -9 -28 12 -7
14 -10 28 -7 32 4 3 7 -1 7 -10 0 -9 7 -17 15 -17 8 0 15 5 15 10 0 6 -4 10
-10 10 -5 0 -10 6 -10 14 0 18 -11 25 -27 19z"/>
<path d="M5634 5165 c0 -93 2 -133 3 -88 2 45 2 122 0 170 -1 48 -3 12 -3 -82z"/>
<path d="M7010 5311 c0 -11 -5 -23 -10 -26 -6 -3 -7 -18 -4 -33 3 -17 2 -22
-3 -15 -6 8 -9 1 -9 -21 0 -28 2 -31 14 -20 13 13 29 134 18 134 -3 0 -6 -9
-6 -19z"/>
<path d="M3019 5313 c0 -5 -2 -16 -4 -27 -3 -13 -1 -16 7 -8 8 8 15 7 24 -6
10 -14 15 -15 26 -4 11 11 10 12 -6 6 -14 -5 -17 -4 -12 4 4 7 1 19 -8 27 -16
16 -26 19 -27 8z"/>
<path d="M6010 5311 c-8 -6 -18 -7 -22 -5 -5 3 -11 -2 -14 -10 -3 -9 -10 -14
-14 -11 -12 8 -22 -27 -10 -39 6 -6 4 -16 -7 -28 -9 -10 -14 -20 -11 -23 2 -3
20 12 39 33 19 20 27 31 19 25 -20 -18 -35 -16 -20 2 11 13 10 15 -6 9 -15 -4
-16 -4 -5 4 8 6 20 8 28 5 7 -3 13 0 13 6 0 6 12 11 28 11 19 0 23 3 13 9 -11
7 -11 9 0 14 11 4 11 6 -1 6 -8 0 -22 -3 -30 -8z"/>
<path d="M4900 5299 c-11 -8 -12 -12 -2 -16 6 -2 12 -9 12 -14 0 -6 -6 -7 -12
-3 -8 4 -10 3 -5 -2 5 -5 14 -9 20 -9 7 0 11 -8 11 -17 -1 -10 4 -14 12 -11 8
3 12 9 9 13 -3 5 2 15 10 24 16 15 4 33 -15 21 -5 -3 -15 -3 -21 1 -8 4 -7 9
2 15 8 5 10 9 4 9 -5 0 -17 -5 -25 -11z"/>
<path d="M4947 5303 c7 -2 15 -4 19 -3 4 1 11 -4 15 -12 7 -10 9 -9 9 5 0 12
-8 17 -27 16 -16 0 -22 -3 -16 -6z"/>
<path d="M5172 5280 c0 -19 2 -27 5 -17 2 9 2 25 0 35 -3 9 -5 1 -5 -18z"/>
<path d="M3135 5289 c-4 -6 -5 -12 -2 -15 2 -3 7 2 10 11 7 17 1 20 -8 4z"/>
<path d="M3568 5293 c6 -2 10 -8 7 -13 -3 -4 4 -6 15 -3 25 7 16 23 -13 22
-12 0 -16 -3 -9 -6z"/>
<path d="M6080 5296 c0 -2 7 -7 16 -10 8 -3 12 -2 9 4 -6 10 -25 14 -25 6z"/>
<path d="M6586 5273 c4 -16 11 -32 17 -38 7 -7 8 -4 3 8 -3 10 -6 27 -6 38 0
10 -5 19 -10 19 -6 0 -8 -11 -4 -27z"/>
<path d="M4850 5275 c-10 -12 -9 -16 4 -21 15 -6 15 -8 -1 -21 -17 -13 -16
-13 3 -4 12 6 20 19 19 30 -2 29 -10 34 -25 16z"/>
<path d="M5015 5281 c-3 -5 -1 -12 5 -16 5 -3 10 -3 10 1 0 3 8 0 18 -7 14
-11 13 -10 -2 9 -22 25 -23 25 -31 13z"/>
<path d="M2935 5270 c3 -6 1 -10 -6 -10 -7 0 -10 -3 -6 -6 3 -3 13 -2 22 4 16
8 16 9 1 15 -10 4 -15 3 -11 -3z"/>
<path d="M2886 5242 c1 -15 2 -31 3 -35 1 -4 7 -2 15 5 12 11 12 14 0 21 -8 5
-12 12 -9 17 3 5 1 11 -3 14 -5 3 -8 -7 -6 -22z"/>
<path d="M6745 5186 c0 -47 3 -86 8 -86 9 0 8 129 -2 153 -4 11 -7 -20 -6 -67z"/>
<path d="M4960 5251 c0 -4 11 -13 24 -20 25 -14 47 -8 45 12 0 8 -2 8 -6 -1
-3 -8 -9 -9 -16 -4 -19 14 -47 22 -47 13z"/>
<path d="M3972 5243 c-10 -4 -10 -8 -1 -19 10 -12 9 -13 -5 -8 -9 3 -16 10
-16 16 0 5 -10 6 -22 2 -32 -9 -80 -45 -73 -52 3 -4 10 0 15 8 6 8 10 10 10 4
0 -18 -28 -37 -41 -28 -8 4 -9 3 -5 -4 10 -17 23 -15 46 8 15 15 20 16 20 6 0
-17 -13 -27 -58 -42 -28 -10 -31 -10 -21 2 9 12 9 13 -3 9 -17 -7 -52 -74 -43
-83 3 -4 15 -1 26 6 16 10 24 10 35 1 9 -7 14 -8 14 -1 0 6 -4 14 -10 17 -5 3
-10 12 -9 18 0 9 2 9 6 0 7 -19 25 -15 21 4 -2 12 7 23 27 33 16 9 29 21 28
27 -2 7 4 10 13 6 15 -5 15 -7 0 -15 -11 -6 -15 -16 -11 -28 4 -11 0 -22 -10
-28 -9 -5 -16 -11 -15 -13 1 -2 -2 -12 -6 -23 -4 -11 -2 -21 7 -27 9 -6 15 -4
17 6 2 8 8 15 13 15 6 0 7 4 4 10 -3 6 1 7 9 4 9 -3 13 -11 9 -18 -4 -6 1 -5
10 3 9 7 14 17 11 22 -3 5 0 9 6 9 6 0 8 5 5 10 -4 7 3 9 18 6 15 -3 24 1 24
10 0 7 -5 10 -11 6 -6 -3 -22 -7 -36 -8 -35 -2 -37 -3 -21 -13 9 -6 10 -11 2
-15 -6 -4 -11 -3 -11 3 0 6 -8 7 -17 4 -10 -4 6 17 36 45 30 29 59 52 63 52 5
0 6 5 3 11 -4 6 -14 8 -22 5 -8 -3 -11 -1 -8 5 4 5 16 7 28 5 13 -4 10 0 -7 8
-20 9 -25 15 -15 19 11 4 11 5 -1 5 -8 0 -21 -2 -28 -5z m-152 -137 c0 -2 -8
-10 -17 -17 -16 -13 -17 -12 -4 4 13 16 21 21 21 13z"/>
<path d="M4303 5205 c0 -27 2 -38 4 -22 2 15 2 37 0 50 -2 12 -4 0 -4 -28z"/>
<path d="M4815 5240 c-3 -5 -1 -10 4 -10 6 0 11 5 11 10 0 6 -2 10 -4 10 -3 0
-8 -4 -11 -10z"/>
<path d="M3088 5228 c10 -13 10 -17 0 -21 -7 -2 -11 -7 -8 -10 3 -3 13 0 22 7
15 11 15 13 -5 26 -20 12 -21 12 -9 -2z"/>
<path d="M5046 5231 c-4 -5 -3 -17 1 -27 5 -13 3 -16 -10 -11 -11 4 -14 2 -10
-9 3 -7 9 -14 13 -14 4 0 12 -16 17 -35 l8 -36 12 38 c10 34 10 36 -3 19 -12
-17 -14 -17 -14 -4 0 9 5 20 10 23 6 3 10 14 9 23 0 14 -2 13 -9 -3 l-9 -20
-2 20 c-1 11 -2 26 -2 33 1 14 -4 16 -11 3z"/>
<path d="M5920 5225 c-13 -16 -6 -65 10 -65 14 0 12 18 -2 22 -10 4 -10 10 -1
31 14 30 12 34 -7 12z"/>
<path d="M6622 5220 c0 -14 2 -19 5 -12 2 6 2 18 0 25 -3 6 -5 1 -5 -13z"/>
<path d="M4076 5208 c3 -13 6 -37 6 -55 1 -18 5 -30 9 -27 4 2 12 -4 18 -13 6
-10 11 -13 11 -7 0 6 -7 17 -15 24 -9 7 -13 20 -10 27 2 8 0 23 -5 34 -7 13
-7 19 0 19 5 0 10 -6 10 -14 0 -21 17 -28 24 -10 3 8 2 12 -4 9 -6 -3 -10 -2
-10 4 0 6 -9 15 -19 21 -17 9 -19 7 -15 -12z"/>
<path d="M4780 5215 c-11 -13 -10 -14 4 -9 9 3 16 10 16 15 0 13 -6 11 -20 -6z"/>
<path d="M6127 5217 c-3 -8 1 -14 8 -14 7 0 11 6 8 14 -3 7 -6 13 -8 13 -2 0
-5 -6 -8 -13z"/>
<path d="M4850 5210 c-9 -6 -10 -10 -3 -10 6 0 15 5 18 10 8 12 4 12 -15 0z"/>
<path d="M4971 5211 c-8 -6 -9 -15 -2 -34 12 -30 0 -36 -20 -10 -9 11 -10 14
-2 9 9 -5 11 -2 6 10 -5 13 -12 9 -39 -22 -18 -22 -33 -43 -34 -47 0 -5 -5 -5
-12 -1 -7 4 -8 3 -4 -5 4 -6 11 -9 16 -6 5 3 12 1 15 -5 7 -12 44 28 40 45 -1
5 0 7 2 3 3 -5 10 -8 16 -8 6 0 19 -7 29 -16 16 -15 18 -15 24 -1 3 9 -4 30
-16 47 -12 16 -18 30 -13 30 4 0 16 -12 26 -25 13 -18 16 -37 13 -75 -3 -27 0
-52 5 -55 5 -3 6 2 2 11 -5 12 -3 15 6 9 10 -6 11 -3 2 13 -13 25 -14 35 -2
28 5 -3 12 1 15 10 3 8 2 12 -4 9 -6 -3 -10 2 -10 12 0 10 -7 28 -15 39 -8 12
-12 24 -9 26 9 9 -22 17 -35 9z m29 -82 c0 -6 -4 -7 -10 -4 -5 3 -10 11 -10
16 0 6 5 7 10 4 6 -3 10 -11 10 -16z m-87 -10 c-8 -8 -13 -7 -18 2 -5 8 -4 10
3 5 7 -4 12 -2 12 5 0 7 3 9 7 6 4 -4 2 -12 -4 -18z"/>
<path d="M5196 5204 c-4 -9 -4 -19 -1 -22 2 -3 7 3 11 12 4 9 4 19 1 22 -2 3
-7 -3 -11 -12z"/>
<path d="M5446 5205 c-3 -8 -3 -22 0 -30 7 -17 24 -20 24 -5 0 6 -5 10 -11 10
-6 0 -8 9 -4 20 7 23 0 27 -9 5z"/>
<path d="M6091 5211 c-15 -10 -6 -51 12 -51 8 0 8 3 -1 12 -15 15 -16 32 -2
23 6 -3 10 1 10 9 0 18 0 19 -19 7z"/>
<path d="M7017 5207 c-3 -8 -1 -20 4 -28 6 -10 9 -7 9 14 0 29 -5 35 -13 14z"/>
<path d="M3135 5199 c-4 -6 -5 -12 -2 -15 2 -3 7 2 10 11 7 17 1 20 -8 4z"/>
<path d="M4901 5191 c-8 -5 -9 -11 -3 -15 5 -3 12 1 16 9 6 17 6 18 -13 6z"/>
<path d="M2880 5180 c0 -5 5 -10 10 -10 6 0 10 5 10 10 0 6 -4 10 -10 10 -5 0
-10 -4 -10 -10z"/>
<path d="M4743 5163 c-26 -36 -38 -60 -28 -50 5 4 14 -6 21 -23 16 -37 27 -38
42 -5 14 31 15 48 3 40 -5 -3 -12 -1 -16 4 -3 6 4 8 15 6 18 -3 21 0 18 23 -4
37 -32 39 -55 5z m43 5 c4 -7 3 -8 -4 -4 -7 4 -12 2 -12 -4 0 -6 -5 -8 -11 -4
-8 4 -7 9 2 15 18 11 17 11 25 -3z"/>
<path d="M6716 5175 c-4 -12 -3 -21 3 -23 6 -2 11 -11 11 -20 0 -15 -2 -15
-10 -2 -5 8 -10 11 -10 5 0 -5 4 -16 9 -24 13 -21 23 17 13 54 -7 26 -9 27
-16 10z"/>
<path d="M2711 5164 c0 -11 3 -14 6 -6 3 7 2 16 -1 19 -3 4 -6 -2 -5 -13z"/>
<path d="M3181 5164 c0 -11 3 -14 6 -6 3 7 2 16 -1 19 -3 4 -6 -2 -5 -13z"/>
<path d="M5817 5137 c-6 -42 2 -238 9 -246 2 -2 4 62 4 142 0 81 -2 147 -4
147 -2 0 -6 -20 -9 -43z"/>
<path d="M6968 5153 c5 -21 7 -23 10 -9 2 10 0 22 -6 28 -6 6 -7 0 -4 -19z"/>
<path d="M6998 5157 c-3 -19 -2 -25 4 -19 6 6 8 18 6 28 -3 14 -5 12 -10 -9z"/>
<path d="M3093 5130 c0 -25 2 -35 4 -22 2 12 2 32 0 45 -2 12 -4 2 -4 -23z"/>
<path d="M2643 5095 c0 -38 2 -53 4 -32 2 20 2 52 0 70 -2 17 -4 1 -4 -38z"/>
<path d="M4100 5152 c0 -5 12 -15 28 -23 15 -8 30 -18 34 -24 4 -5 7 2 6 16
-2 22 -7 26 -25 24 -13 -1 -23 2 -23 6 0 5 -4 9 -10 9 -5 0 -10 -4 -10 -8z"/>
<path d="M5939 5152 c-13 -6 -13 -11 -2 -32 12 -24 14 -23 17 10 1 8 7 14 14
13 7 -2 12 2 12 7 0 11 -17 12 -41 2z"/>
<path d="M5086 5132 c-4 -13 -5 -26 -2 -29 10 -11 18 4 14 29 l-4 23 -8 -23z"/>
<path d="M6083 5129 c1 -10 6 -18 11 -16 16 5 18 24 2 30 -10 4 -14 0 -13 -14z"/>
<path d="M6120 5139 c0 -5 5 -7 10 -4 6 3 10 8 10 11 0 2 -4 4 -10 4 -5 0 -10
-5 -10 -11z"/>
<path d="M4810 5130 c0 -5 5 -10 10 -10 6 0 10 5 10 10 0 6 -4 10 -10 10 -5 0
-10 -4 -10 -10z"/>
<path d="M4054 5111 c4 -5 0 -12 -6 -14 -7 -3 -3 -6 10 -6 12 -1 22 -5 22 -11
0 -5 -8 -7 -17 -4 -14 5 -15 4 -4 -4 8 -6 12 -19 8 -31 -3 -14 -1 -19 6 -14 6
4 8 0 4 -10 -3 -9 -2 -19 4 -22 5 -4 7 -10 4 -15 -10 -17 8 -42 26 -37 13 4
19 0 19 -12 0 -10 3 -21 7 -24 10 -11 33 13 33 35 0 10 4 17 9 13 11 -6 26 77
18 97 -3 7 -6 -2 -6 -19 -1 -18 -5 -33 -10 -33 -4 0 -5 19 0 43 11 56 10 67
-3 37 -9 -21 -12 -22 -15 -7 -3 13 -15 17 -44 17 -26 0 -42 5 -45 15 -4 8 -10
15 -16 15 -5 0 -7 -4 -4 -9z m96 -71 c0 -5 -4 -10 -9 -10 -6 0 -13 5 -16 10
-3 6 1 10 9 10 9 0 16 -4 16 -10z"/>
<path d="M5970 5108 c0 -9 12 -14 35 -14 35 0 31 7 -12 20 -16 5 -23 3 -23 -6z"/>
<path d="M5186 5088 c-3 -13 -5 -39 -5 -58 1 -28 3 -25 10 19 9 55 6 80 -5 39z"/>
<path d="M4290 5050 c0 -29 3 -51 6 -47 8 7 7 87 0 95 -3 3 -6 -19 -6 -48z"/>
<path d="M7438 5093 c7 -3 16 -2 19 1 4 3 -2 6 -13 5 -11 0 -14 -3 -6 -6z"/>
<path d="M2891 5074 c0 -11 3 -14 6 -6 3 7 2 16 -1 19 -3 4 -6 -2 -5 -13z"/>
<path d="M4993 5040 c0 -30 2 -43 4 -27 2 15 2 39 0 55 -2 15 -4 2 -4 -28z"/>
<path d="M6720 5083 c0 -15 19 -37 26 -31 3 4 -1 14 -10 23 -9 9 -16 13 -16 8z"/>
<path d="M7424 5076 c11 -9 27 -16 35 -16 14 0 14 -1 1 -10 -8 -5 -10 -10 -5
-10 6 0 17 5 25 10 12 7 12 10 1 10 -8 0 -11 6 -7 15 4 12 2 14 -11 6 -11 -6
-25 -6 -38 0 -20 10 -20 10 -1 -5z"/>
<path d="M4698 5062 c4 -10 1 -13 -7 -8 -8 5 -6 -4 4 -25 22 -43 29 -51 20
-20 -5 18 -4 22 5 16 9 -5 11 -4 6 4 -4 6 -12 9 -17 6 -5 -4 -9 -2 -9 4 0 5 5
13 10 16 15 9 12 22 -4 22 -8 0 -12 -6 -8 -15z"/>
<path d="M5452 5060 c0 -14 2 -19 5 -12 2 6 2 18 0 25 -3 6 -5 1 -5 -13z"/>
<path d="M7390 5070 c0 -5 5 -10 11 -10 5 0 7 5 4 10 -3 6 -8 10 -11 10 -2 0
-4 -4 -4 -10z"/>
<path d="M3815 5061 c-3 -6 -15 -11 -25 -11 -17 0 -21 -14 -9 -35 3 -5 1 -26
-4 -45 l-11 -35 -7 40 c-6 33 -7 29 -4 -20 3 -58 39 -165 55 -165 5 0 7 8 5
18 -2 9 -4 21 -4 25 -1 5 -6 5 -13 1 -7 -4 -8 -3 -4 5 4 6 12 9 17 6 5 -4 9 1
9 10 0 10 -5 13 -12 9 -7 -5 -8 -3 -3 6 6 10 11 9 23 -6 14 -18 14 -18 8 2 -4
12 1 43 10 69 16 49 13 84 -11 117 -8 12 -15 16 -20 9z m27 -52 c4 -19 2 -38
-3 -44 -7 -7 -8 -4 -4 8 4 9 3 17 -3 17 -5 0 -12 14 -14 30 -6 42 15 33 24
-11z"/>
<path d="M7595 5050 c10 -11 20 -20 23 -20 3 0 -3 9 -13 20 -10 11 -20 20 -23
20 -3 0 3 -9 13 -20z"/>
<path d="M7506 5052 c-2 -4 4 -8 14 -8 10 0 16 4 14 8 -3 4 -9 8 -14 8 -5 0
-11 -4 -14 -8z"/>
<path d="M4756 5037 c3 -10 9 -15 12 -12 3 3 0 11 -7 18 -10 9 -11 8 -5 -6z"/>
<path d="M5486 5034 c-4 -9 -4 -19 -1 -22 2 -3 7 3 11 12 4 9 4 19 1 22 -2 3
-7 -3 -11 -12z"/>
<path d="M7000 5034 c0 -10 5 -26 10 -34 8 -11 9 -7 4 15 -8 37 -14 45 -14 19z"/>
<path d="M7315 5020 c-16 -17 -25 -30 -20 -30 5 0 0 -7 -11 -16 -17 -15 -17
-15 8 0 34 20 44 20 29 2 -10 -11 -9 -14 4 -12 8 1 21 8 28 15 6 7 8 11 2 10
-17 -4 -45 13 -39 23 3 5 15 13 27 17 11 4 16 11 10 14 -5 3 -23 -7 -38 -23z"/>
<path d="M4657 5003 l-18 -38 20 25 c18 22 28 50 18 50 -2 0 -11 -17 -20 -37z"/>
<path d="M4825 5029 c-4 -6 -5 -12 -2 -15 2 -3 7 2 10 11 7 17 1 20 -8 4z"/>
<path d="M6388 4900 c-2 -77 0 -150 4 -162 3 -13 6 50 7 140 1 89 -1 162 -3
162 -3 0 -6 -63 -8 -140z"/>
<path d="M3110 5021 c0 -6 4 -13 10 -16 6 -3 7 1 4 9 -7 18 -14 21 -14 7z"/>
<path d="M4796 4968 c1 -46 -4 -67 -15 -78 -9 -8 -16 -25 -17 -37 -1 -24 21
-39 32 -21 4 7 3 8 -4 4 -8 -5 -12 2 -12 19 0 14 7 28 15 31 9 4 15 19 15 40
0 20 5 34 12 34 9 0 9 3 0 12 -20 20 -14 30 11 17 18 -10 17 -7 -6 15 -15 14
-29 26 -30 26 -1 0 -2 -28 -1 -62z"/>
<path d="M6561 5014 c0 -11 3 -14 6 -6 3 7 2 16 -1 19 -3 4 -6 -2 -5 -13z"/>
<path d="M6720 5025 c0 -5 5 -17 10 -25 5 -8 10 -10 10 -5 0 6 -5 17 -10 25
-5 8 -10 11 -10 5z"/>
<path d="M2900 5001 c0 -5 5 -13 10 -16 6 -3 10 -2 10 4 0 5 -4 13 -10 16 -5
3 -10 2 -10 -4z"/>
<path d="M3411 4996 c-7 -8 -18 -13 -25 -10 -15 6 -78 -44 -71 -56 3 -4 -2
-11 -11 -14 -23 -9 -6 -27 21 -22 14 3 27 1 30 -4 3 -5 -3 -7 -13 -5 -10 2
-24 0 -31 -4 -14 -9 1 -25 37 -35 29 -9 41 18 18 43 -9 10 -13 22 -9 26 5 5 1
4 -9 -3 -11 -9 -18 -10 -23 -2 -3 5 -1 10 5 10 6 0 9 4 6 9 -3 4 1 16 8 26 10
14 15 15 21 5 5 -9 4 -11 -3 -6 -7 4 -12 2 -12 -3 0 -6 7 -11 16 -11 11 0 15
6 11 20 -3 11 -1 20 4 20 5 0 9 -4 9 -10 0 -5 5 -10 12 -10 6 0 8 3 5 7 -4 3
1 12 11 19 9 7 14 15 11 18 -3 4 -12 0 -18 -8z"/>
<path d="M3446 4996 c4 -11 2 -16 -7 -14 -7 2 -15 -5 -17 -16 -2 -11 0 -16 6
-12 6 4 16 -2 22 -11 10 -16 11 -16 7 4 -3 13 1 24 9 27 8 3 14 11 14 17 0 7
-3 9 -7 6 -3 -4 -12 -2 -20 5 -11 8 -12 7 -7 -6z"/>
<path d="M3522 4993 c-11 -22 -13 -125 -2 -118 4 3 13 -2 20 -10 7 -8 9 -15 4
-15 -4 0 -3 -5 4 -12 9 -9 15 -9 24 0 9 9 8 15 -8 27 -18 14 -17 15 8 4 15 -7
26 -15 23 -18 -2 -4 0 -13 4 -20 6 -9 10 -5 13 13 3 15 3 25 1 22 -8 -8 -84
36 -91 52 -3 8 3 21 13 28 10 8 15 20 11 29 -3 10 -2 14 5 10 13 -9 76 -19 68
-11 -3 3 -16 7 -30 10 -13 2 -23 9 -21 15 4 18 -37 12 -46 -6z"/>
<path d="M5011 4994 c0 -11 3 -14 6 -6 3 7 2 16 -1 19 -3 4 -6 -2 -5 -13z"/>
<path d="M5451 4994 c0 -11 3 -14 6 -6 3 7 2 16 -1 19 -3 4 -6 -2 -5 -13z"/>
<path d="M7450 5000 c-13 -9 -13 -11 0 -20 18 -11 37 -12 65 -1 19 8 19 8 -2
19 -26 14 -43 15 -63 2z"/>
<path d="M3084 4988 c-4 -7 -3 -8 5 -4 6 4 20 2 29 -6 15 -12 16 -11 3 5 -16
20 -27 22 -37 5z"/>
<path d="M4685 4990 c3 -5 8 -10 11 -10 2 0 4 5 4 10 0 6 -5 10 -11 10 -5 0
-7 -4 -4 -10z"/>
<path d="M6683 4983 c1 -10 6 -24 10 -30 5 -7 5 -17 2 -23 -3 -6 1 -7 10 -4 9
4 13 9 11 12 -3 3 0 12 7 21 11 14 10 14 -6 2 -16 -13 -19 -13 -17 0 4 25 0
39 -10 39 -5 0 -9 -8 -7 -17z"/>
<path d="M3155 4979 c-4 -6 -5 -12 -2 -15 2 -3 7 2 10 11 7 17 1 20 -8 4z"/>
<path d="M4270 4827 c-9 -118 -9 -162 -1 -165 13 -4 15 -42 2 -42 -16 0 -20
-40 -10 -107 6 -44 6 -70 -1 -77 -7 -7 -10 4 -11 35 -1 24 -7 -12 -15 -81 -14
-140 -16 -198 -3 -135 7 36 7 34 5 -18 -2 -45 0 -57 11 -53 7 3 13 1 13 -5 0
-6 5 -7 10 -4 12 7 14 55 2 55 -4 0 -6 20 -4 45 2 25 8 45 14 45 5 0 6 5 3 10
-4 6 -15 8 -26 5 -16 -6 -19 -1 -19 32 0 26 3 34 9 24 5 -8 16 -11 27 -7 12 5
14 10 7 17 -8 8 -8 22 1 48 19 54 27 103 16 96 -11 -7 -26 42 -16 52 3 4 6 -4
6 -17 0 -35 18 -12 22 28 2 21 -2 36 -12 43 -13 8 -13 11 2 19 12 8 15 19 11
44 -3 18 -1 36 5 39 11 8 4 55 -10 63 -5 3 -4 12 3 20 9 11 9 14 0 14 -9 0 -9
5 0 21 13 24 4 86 -15 105 -10 10 -15 -18 -26 -149z m39 81 c1 -10 -3 -18 -9
-18 -5 0 -10 17 -9 38 0 30 2 33 9 17 5 -11 9 -28 9 -37z m-22 -80 c-3 -8 -6
-5 -6 6 -1 11 2 17 5 13 3 -3 4 -12 1 -19z m15 -65 c-11 -28 -11 -28 -9 9 0
23 5 34 10 29 6 -6 5 -21 -1 -38z m-35 -195 c-3 -8 -6 -5 -6 6 -1 11 2 17 5
13 3 -3 4 -12 1 -19z m23 -69 c0 -11 -4 -17 -10 -14 -5 3 -10 15 -10 26 0 11
5 17 10 14 6 -3 10 -15 10 -26z"/>
<path d="M5474 4975 c-10 -8 -14 -15 -8 -15 6 0 17 7 24 15 16 19 9 19 -16 0z"/>
<path d="M7042 4960 c0 -19 2 -27 5 -17 2 9 2 25 0 35 -3 9 -5 1 -5 -18z"/>
<path d="M3872 4955 c-6 -14 -8 -25 -3 -25 8 0 23 41 17 47 -1 2 -8 -8 -14
-22z"/>
<path d="M3898 4961 c-7 -23 14 -91 27 -91 3 0 3 6 -2 13 -4 6 -10 32 -13 57
-5 37 -7 41 -12 21z"/>
<path d="M4492 4950 c0 -19 2 -27 5 -17 2 9 2 25 0 35 -3 9 -5 1 -5 -18z"/>
<path d="M7626 4972 c-3 -5 1 -9 9 -9 8 0 12 4 9 9 -3 4 -7 8 -9 8 -2 0 -6 -4
-9 -8z"/>
<path d="M3470 4954 c0 -8 5 -12 10 -9 6 4 8 11 5 16 -9 14 -15 11 -15 -7z"/>
<path d="M3615 4951 c-6 -11 13 -26 22 -17 4 3 1 6 -6 6 -7 0 -9 5 -6 10 3 6
4 10 1 10 -3 0 -7 -4 -11 -9z"/>
<path d="M5001 4944 c0 -11 3 -14 6 -6 3 7 2 16 -1 19 -3 4 -6 -2 -5 -13z"/>
<path d="M5062 4940 c0 -14 2 -19 5 -12 2 6 2 18 0 25 -3 6 -5 1 -5 -13z"/>
<path d="M5087 4953 c-11 -10 -8 -53 3 -53 6 0 10 14 10 30 0 31 -2 35 -13 23z"/>
<path d="M5386 4945 c-9 -26 -7 -32 5 -12 6 10 9 21 6 23 -2 3 -7 -2 -11 -11z"/>
<path d="M6035 4953 c11 -3 27 -10 35 -17 13 -10 13 -9 1 7 -7 9 -23 16 -35
16 -20 -1 -20 -2 -1 -6z"/>
<path d="M7390 4938 c-12 -22 -12 -22 6 -6 10 10 15 20 12 24 -4 3 -12 -5 -18
-18z"/>
<path d="M7428 4953 c7 -3 16 -2 19 1 4 3 -2 6 -13 5 -11 0 -14 -3 -6 -6z"/>
<path d="M4014 4922 c1 -34 36 -86 44 -64 2 7 8 12 13 12 6 0 7 -5 3 -12 -4
-7 -3 -8 5 -4 8 5 6 14 -8 29 -11 12 -29 33 -40 47 l-19 25 2 -33z"/>
<path d="M4063 4934 c-15 -16 -16 -24 -4 -24 8 0 24 30 19 35 -2 2 -9 -3 -15
-11z"/>
<path d="M7234 4899 c-14 -28 -23 -54 -20 -57 3 -3 6 0 6 7 0 8 6 11 16 7 12
-4 15 -2 10 9 -3 8 -2 25 3 37 6 18 9 19 14 5 4 -10 2 -17 -3 -17 -6 0 -10 -5
-10 -11 0 -8 4 -8 15 1 11 9 12 17 4 31 -5 11 -7 24 -4 29 3 6 4 10 1 10 -3 0
-17 -23 -32 -51z"/>
<path d="M3390 4927 c0 -7 7 -23 16 -35 21 -31 11 -72 -16 -67 -19 4 -25 -8
-21 -41 2 -21 -39 -24 -49 -3 -13 24 -36 25 -45 2 -12 -31 -22 -112 -13 -107
4 3 8 -4 8 -15 0 -11 5 -23 10 -26 10 -6 14 6 10 39 -1 17 4 18 49 14 47 -5
69 4 39 15 -7 2 -10 7 -7 11 4 4 14 0 23 -9 9 -9 16 -12 16 -7 0 14 -36 43
-43 35 -4 -3 -7 -1 -7 5 0 6 5 14 10 17 6 3 10 2 10 -3 0 -20 27 -19 39 0 7
11 8 17 2 13 -6 -3 -11 2 -12 12 0 10 -3 13 -6 6 -2 -7 -9 -13 -15 -13 -7 0
-6 5 2 14 6 8 17 13 23 10 7 -2 22 11 35 29 23 34 30 63 12 52 -5 -3 -10 3
-10 14 0 11 -5 23 -10 26 -6 4 -8 10 -6 14 3 4 -6 8 -20 9 -14 1 -24 -4 -24
-11z"/>
<path d="M5181 4915 c1 -16 5 -43 9 -60 7 -27 8 -26 9 15 0 25 -4 52 -9 60 -7
11 -9 8 -9 -15z"/>
<path d="M5332 4915 c0 -16 2 -22 5 -12 2 9 2 23 0 30 -3 6 -5 -1 -5 -18z"/>
<path d="M6661 4926 c-12 -15 -8 -20 11 -17 4 0 5 -6 2 -14 -3 -8 -9 -13 -12
-12 -4 1 -9 -2 -12 -7 -3 -5 6 -10 20 -12 14 -1 19 0 12 3 -9 3 -10 9 -2 18 6
7 7 21 2 35 -7 19 -9 20 -21 6z"/>
<path d="M2943 4908 c1 -15 6 -23 11 -18 4 4 4 16 -2 26 -9 16 -10 14 -9 -8z"/>
<path d="M4980 4920 c0 -5 5 -10 10 -10 6 0 11 -15 11 -32 1 -20 3 -26 6 -14
4 15 7 16 14 5 6 -9 9 -10 9 -2 0 6 -5 15 -10 18 -8 5 -7 12 2 23 7 10 9 14 4
10 -5 -4 -17 -3 -27 3 -13 6 -19 6 -19 -1z"/>
<path d="M7400 4910 c-10 -19 -9 -25 6 -39 10 -9 15 -12 11 -7 -4 5 1 19 10
30 18 21 18 21 -4 2 -24 -20 -33 -10 -11 12 6 6 9 14 6 18 -4 3 -12 -4 -18
-16z"/>
<path d="M3610 4911 c0 -6 5 -11 11 -11 5 0 7 -6 3 -12 -6 -10 -5 -10 8 -1 8
7 17 12 19 10 2 -1 3 0 1 3 -2 3 -7 5 -10 5 -4 0 -13 4 -19 8 -8 5 -13 4 -13
-2z"/>
<path d="M5396 4905 c-9 -26 -7 -32 5 -12 6 10 9 21 6 23 -2 3 -7 -2 -11 -11z"/>
<path d="M5642 4895 c0 -16 2 -22 5 -12 2 9 2 23 0 30 -3 6 -5 -1 -5 -18z"/>
<path d="M5058 4883 c6 -2 10 -9 6 -14 -3 -5 0 -9 5 -9 6 0 11 7 11 15 0 8 -8
15 -17 14 -11 0 -13 -3 -5 -6z"/>
<path d="M5422 4870 c0 -14 2 -19 5 -12 2 6 2 18 0 25 -3 6 -5 1 -5 -13z"/>
<path d="M5527 4883 c-10 -9 -9 -23 1 -23 5 0 9 7 9 15 0 17 -1 18 -10 8z"/>
<path d="M2782 4868 c-15 -15 -15 -25 1 -31 7 -3 12 4 12 19 0 13 0 24 0 24
-1 0 -6 -5 -13 -12z"/>
<path d="M4118 4869 c-10 -5 -18 -14 -18 -18 0 -19 27 -18 50 1 l25 21 -24 -8
c-16 -5 -21 -4 -17 4 9 13 6 13 -16 0z m12 -19 c0 -5 -2 -10 -4 -10 -3 0 -8 5
-11 10 -3 6 -1 10 4 10 6 0 11 -4 11 -10z"/>
<path d="M4790 4869 c0 -5 5 -7 10 -4 6 3 10 8 10 11 0 2 -4 4 -10 4 -5 0 -10
-5 -10 -11z"/>
<path d="M7050 4838 c-3 -26 -1 -43 3 -39 5 5 7 26 5 47 l-3 39 -5 -47z"/>
<path d="M7364 4869 c-5 -8 -3 -10 6 -4 9 5 10 2 6 -13 -4 -11 -3 -23 2 -25 9
-6 10 38 1 48 -4 3 -10 1 -15 -6z"/>
<path d="M3631 4848 c1 -18 2 -19 6 -5 2 9 9 15 14 12 5 -4 9 -1 9 4 0 6 -7
11 -15 11 -9 0 -15 -9 -14 -22z"/>
<path d="M5391 4854 c0 -11 3 -14 6 -6 3 7 2 16 -1 19 -3 4 -6 -2 -5 -13z"/>
<path d="M7606 4855 c4 -8 8 -15 10 -15 2 0 4 7 4 15 0 8 -4 15 -10 15 -5 0
-7 -7 -4 -15z"/>
<path d="M2720 4840 c6 -11 13 -20 16 -20 2 0 0 9 -6 20 -6 11 -13 20 -16 20
-2 0 0 -9 6 -20z"/>
<path d="M2740 4853 c0 -4 5 -15 10 -23 8 -13 10 -13 10 2 0 9 -4 20 -10 23
-5 3 -10 3 -10 -2z"/>
<path d="M4965 4849 c-4 -6 -5 -12 -2 -15 2 -3 7 2 10 11 7 17 1 20 -8 4z"/>
<path d="M6897 4854 c-10 -10 -9 -54 2 -54 12 0 22 43 13 52 -5 5 -11 5 -15 2z"/>
<path d="M5030 4841 c0 -7 -4 -9 -10 -6 -5 3 -10 2 -10 -4 0 -5 4 -12 9 -15
10 -6 25 24 16 32 -3 3 -5 0 -5 -7z"/>
<path d="M3579 4830 c-1 -8 -1 -24 0 -35 4 -48 4 -63 1 -105 l-3 -45 -7 45 -7
45 -2 -40 c-1 -22 -4 -51 -6 -65 -5 -22 -4 -22 4 -5 9 18 10 18 10 2 1 -14 4
-15 14 -6 7 7 12 33 11 61 0 27 3 51 8 54 4 3 8 -3 8 -12 0 -12 3 -15 10 -8 7
7 7 19 1 35 -5 13 -10 17 -11 9 0 -12 -3 -11 -11 3 -6 10 -9 24 -6 30 2 7 1
21 -4 32 -5 14 -8 16 -10 5z"/>
<path d="M6510 4829 c0 -5 -4 -7 -10 -4 -14 9 -12 -1 3 -13 10 -8 13 -6 14 9
1 10 0 19 -3 19 -2 0 -4 -5 -4 -11z"/>
<path d="M7240 4820 c6 -11 13 -20 16 -20 2 0 0 9 -6 20 -6 11 -13 20 -16 20
-2 0 0 -9 6 -20z"/>
<path d="M7314 4825 c-16 -12 -17 -16 -4 -24 19 -13 29 -5 27 19 -1 11 -2 20
-2 20 -1 0 -10 -7 -21 -15z"/>
<path d="M2771 4818 c-1 -10 -5 -18 -11 -18 -5 0 -10 -5 -10 -12 0 -6 3 -8 7
-5 3 4 14 0 24 -9 19 -18 20 -7 1 36 -8 18 -11 20 -11 8z"/>
<path d="M4590 4821 c0 -10 19 -25 25 -20 1 2 -3 10 -11 17 -8 7 -14 8 -14 3z"/>
<path d="M4973 4813 c-4 -10 -15 -29 -24 -43 -10 -14 -21 -38 -23 -54 -3 -17
-18 -40 -33 -54 -15 -13 -23 -21 -17 -18 16 8 26 -51 14 -75 -12 -21 -31 -26
-26 -6 1 6 1 9 -1 5 -3 -5 -14 -8 -26 -9 -16 -1 -12 -4 12 -11 25 -7 36 -6 41
3 4 6 13 8 19 5 7 -5 11 2 11 18 0 14 4 28 10 31 5 3 7 19 3 36 -5 25 -3 29
13 23 11 -3 15 -2 9 3 -16 12 -17 55 -2 47 8 -5 8 -3 0 7 -16 16 -17 33 -1 23
7 -5 8 -3 4 5 -5 7 -1 20 7 29 15 19 29 52 21 52 -2 0 -8 -8 -11 -17z m-58
-171 c-3 -3 -11 0 -18 7 -9 10 -8 11 6 5 10 -3 15 -9 12 -12z"/>
<path d="M5401 4813 c0 -12 2 -14 6 -4 5 11 7 11 15 0 8 -12 9 -12 6 0 -6 22
-28 25 -27 4z"/>
<path d="M5651 4814 c0 -11 3 -14 6 -6 3 7 2 16 -1 19 -3 4 -6 -2 -5 -13z"/>
<path d="M7202 4825 c4 -4 3 -14 -4 -22 -6 -7 -9 -15 -7 -18 3 -2 10 4 17 15
9 15 9 21 -1 26 -6 4 -9 4 -5 -1z"/>
<path d="M3930 4805 c17 -20 19 -47 5 -57 -12 -9 -3 -18 24 -23 12 -2 21 1 21
8 0 8 3 8 9 -1 7 -11 9 -10 14 3 4 9 3 14 -2 10 -5 -3 -12 1 -14 7 -4 10 -6
10 -6 1 -1 -7 -6 -13 -12 -13 -6 0 -9 7 -5 15 3 8 1 15 -4 15 -5 0 -7 6 -4 14
3 9 -4 20 -18 27 -21 11 -22 11 -8 -6z"/>
<path d="M2990 4791 c5 -11 15 -23 21 -27 6 -3 3 5 -6 20 -20 30 -30 35 -15 7z"/>
<path d="M3010 4800 c0 -5 5 -10 11 -10 5 0 7 5 4 10 -3 6 -8 10 -11 10 -2 0
-4 -4 -4 -10z"/>
<path d="M3626 4802 c6 -4 13 -14 16 -22 3 -11 6 -9 10 6 4 15 0 20 -16 22
-11 0 -16 -2 -10 -6z"/>
<path d="M3250 4780 c0 -11 2 -20 4 -20 2 0 6 9 9 20 3 11 1 20 -4 20 -5 0 -9
-9 -9 -20z"/>
<path d="M3900 4774 c0 -13 -4 -24 -9 -24 -5 0 -17 -12 -27 -27 -17 -27 -17
-28 1 -13 17 14 18 13 12 -2 -3 -10 -1 -20 5 -24 6 -4 8 -3 4 4 -3 6 -2 13 3
16 14 9 21 -20 8 -34 -9 -10 -8 -12 5 -7 12 4 15 2 11 -9 -3 -8 0 -21 7 -29 6
-8 8 -20 4 -26 -5 -8 -3 -9 6 -4 10 6 12 4 7 -9 -4 -9 1 -32 10 -49 10 -18 18
-43 18 -57 0 -14 4 -26 9 -27 5 -1 12 -7 16 -14 5 -6 7 2 5 19 -1 17 -6 37
-12 44 -15 19 -27 44 -18 36 11 -10 35 11 35 30 0 13 -3 12 -14 -4 -14 -19
-15 -19 -22 0 -4 10 -3 31 3 45 13 35 7 55 -11 38 -8 -6 -11 -19 -8 -27 2 -8
-2 -6 -11 5 -8 11 -13 23 -11 27 3 4 -2 21 -11 37 -19 37 -19 61 -1 61 22 0
27 37 5 43 -15 4 -19 0 -19 -19z"/>
<path d="M5781 4763 c-1 -23 -5 -45 -11 -48 -5 -3 -10 -12 -10 -18 0 -7 5 -4
11 6 6 9 14 15 18 13 4 -3 5 12 3 32 -5 56 -10 62 -11 15z"/>
<path d="M5808 4710 c-4 -52 -5 -96 -2 -99 11 -12 15 14 12 100 l-3 94 -7 -95z"/>
<path d="M5952 4775 c0 -16 2 -22 5 -12 2 9 2 23 0 30 -3 6 -5 -1 -5 -18z"/>
<path d="M6564 4781 c0 -11 5 -17 10 -14 5 4 7 -3 4 -15 -4 -15 -2 -19 8 -15
11 4 11 10 -2 34 -17 34 -20 35 -20 10z"/>
<path d="M7525 4790 c-4 -6 -10 -8 -15 -5 -5 3 -13 -3 -19 -12 -6 -10 -11 -14
-11 -9 0 15 -40 -41 -40 -57 0 -9 8 -17 18 -19 14 -3 13 -5 -6 -10 -12 -3 -20
-3 -17 2 3 4 -2 10 -10 14 -8 3 -17 1 -20 -5 -4 -5 -10 -7 -14 -4 -12 7 -34
-46 -23 -57 12 -12 42 17 42 40 0 14 2 15 9 2 6 -8 7 -19 3 -25 -3 -6 0 -6 9
1 8 6 22 10 32 9 10 -2 14 1 10 8 -4 6 0 8 10 4 9 -3 16 -3 14 1 -2 8 28 53
34 49 2 -1 -2 4 -10 10 -12 11 -19 9 -36 -7 -29 -27 -41 -26 -15 2 11 12 20
26 20 32 0 5 3 6 7 3 3 -4 13 2 20 13 8 11 19 17 25 14 7 -4 8 -2 4 4 -9 15
-13 15 -21 2z m-45 -44 c0 -2 -8 -10 -17 -17 -16 -13 -17 -12 -4 4 13 16 21
21 21 13z m30 -31 c0 -8 -4 -15 -10 -15 -5 0 -7 7 -4 15 4 8 8 15 10 15 2 0 4
-7 4 -15z m-110 -55 c0 -5 -2 -10 -4 -10 -3 0 -8 5 -11 10 -3 6 -1 10 4 10 6
0 11 -4 11 -10z"/>
<path d="M2963 4756 c2 -29 5 -33 27 -31 14 2 34 -2 45 -7 11 -6 4 3 -15 20
-24 21 -37 26 -43 18 -5 -6 -6 -1 -2 12 4 13 2 22 -4 22 -6 0 -10 -15 -8 -34z
m37 -16 c0 -5 -4 -10 -10 -10 -5 0 -10 5 -10 10 0 6 5 10 10 10 6 0 10 -4 10
-10z"/>
<path d="M3667 4776 c-6 -15 2 -108 9 -115 2 -2 4 26 4 62 0 67 -3 79 -13 53z"/>
<path d="M4472 4765 c0 -16 2 -22 5 -12 2 9 2 23 0 30 -3 6 -5 -1 -5 -18z"/>
<path d="M4584 4759 c0 -21 4 -35 9 -32 4 2 7 -6 8 -19 0 -22 1 -22 9 -3 7 17
9 16 9 -9 1 -45 8 -27 15 39 4 40 3 53 -3 40 -9 -19 -10 -20 -10 0 -1 15 -4
16 -13 7 -9 -9 -9 -15 0 -24 14 -14 16 -28 3 -28 -4 0 -13 15 -18 33 l-10 32
1 -36z"/>
<path d="M5046 4773 c-6 -14 -5 -15 5 -6 7 7 10 15 7 18 -3 3 -9 -2 -12 -12z"/>
<path d="M3560 4765 c0 -8 4 -15 10 -15 5 0 7 7 4 15 -4 8 -8 15 -10 15 -2 0
-4 -7 -4 -15z"/>
<path d="M6450 4765 c-7 -9 -11 -17 -9 -20 3 -2 10 5 17 15 14 24 10 26 -8 5z"/>
<path d="M7363 4758 c-2 -16 1 -18 10 -9 7 7 8 14 1 21 -6 6 -10 2 -11 -12z"/>
<path d="M5663 4758 c-16 -20 -25 -80 -11 -72 8 5 9 -8 6 -47 -6 -57 11 -109
35 -109 9 0 9 2 -1 9 -7 4 -12 12 -11 17 1 5 -1 16 -4 24 -10 25 -13 120 -3
120 4 0 5 7 2 16 -3 8 -2 13 3 10 5 -3 8 5 7 19 -1 28 -8 31 -23 13z"/>
<path d="M6360 4746 c0 -22 3 -27 11 -19 8 8 8 16 0 30 -9 16 -10 14 -11 -11z"/>
<path d="M7177 4738 c-3 -19 -2 -49 1 -67 l7 -33 11 46 c7 33 7 51 -1 67 -11
20 -12 20 -18 -13z m10 -40 c-3 -8 -6 -5 -6 6 -1 11 2 17 5 13 3 -3 4 -12 1
-19z"/>
<path d="M7526 4761 c-3 -5 1 -14 8 -20 10 -9 16 -9 21 -1 4 6 1 9 -7 8 -7 -2
-12 3 -10 10 2 14 -4 16 -12 3z"/>
<path d="M3034 4748 c-4 -7 -4 -10 1 -6 4 4 14 0 22 -10 13 -15 13 -15 3 6
-12 25 -16 27 -26 10z"/>
<path d="M5055 4749 c-4 -6 -5 -12 -2 -15 2 -3 7 2 10 11 7 17 1 20 -8 4z"/>
<path d="M5321 4744 c0 -11 3 -14 6 -6 3 7 2 16 -1 19 -3 4 -6 -2 -5 -13z"/>
<path d="M6465 4751 c-3 -5 -2 -12 3 -15 5 -3 9 1 9 9 0 17 -3 19 -12 6z"/>
<path d="M6883 4680 c0 -41 2 -58 4 -37 2 20 2 54 0 75 -2 20 -4 3 -4 -38z"/>
<path d="M7062 4720 c0 -19 2 -27 5 -17 2 9 2 25 0 35 -3 9 -5 1 -5 -18z"/>
<path d="M3242 4715 c0 -16 2 -22 5 -12 2 9 2 23 0 30 -3 6 -5 -1 -5 -18z"/>
<path d="M3641 4714 c0 -11 3 -14 6 -6 3 7 2 16 -1 19 -3 4 -6 -2 -5 -13z"/>
<path d="M5174 4717 c-3 -8 -3 -39 -1 -68 l3 -54 3 65 c2 49 5 59 11 40 7 -23
8 -23 9 -3 1 26 -17 40 -25 20z"/>
<path d="M5415 4720 c-3 -5 -1 -10 4 -10 6 0 11 5 11 10 0 6 -2 10 -4 10 -3 0
-8 -4 -11 -10z"/>
<path d="M2855 4711 c-3 -6 -3 -11 1 -11 4 0 -1 -10 -12 -22 -10 -13 -12 -18
-5 -11 7 6 19 9 26 7 7 -3 11 3 10 15 -2 26 -11 36 -20 22z"/>
<path d="M5015 4709 c-4 -6 -5 -12 -2 -15 2 -3 7 2 10 11 7 17 1 20 -8 4z"/>
<path d="M5571 4704 c0 -11 3 -14 6 -6 3 7 2 16 -1 19 -3 4 -6 -2 -5 -13z"/>
<path d="M7030 4699 c-6 -11 -10 -25 -8 -30 2 -5 8 4 15 21 13 34 9 40 -7 9z"/>
<path d="M7220 4685 c0 -19 5 -35 10 -35 6 0 10 16 10 35 0 19 -4 35 -10 35
-5 0 -10 -16 -10 -35z"/>
<path d="M7403 4713 c-7 -2 -13 -9 -13 -15 0 -7 5 -7 13 1 8 6 17 8 20 4 4 -3
7 -1 7 5 0 13 -7 14 -27 5z"/>
<path d="M4003 4678 c0 -21 2 -26 8 -17 8 12 13 6 11 -12 -1 -3 6 -6 14 -6 8
0 14 4 14 9 0 5 5 6 12 2 7 -4 8 -3 4 4 -4 6 -13 9 -21 5 -9 -3 -15 1 -15 10
0 8 -6 19 -13 25 -9 8 -13 3 -14 -20z"/>
<path d="M3049 4700 c-1 -3 -3 -15 -4 -28 -2 -19 0 -20 13 -10 13 11 15 10 10
-4 -4 -10 -1 -19 8 -22 8 -3 12 -2 9 3 -3 6 3 15 12 21 16 9 16 10 1 8 -9 -2
-24 6 -32 17 -9 11 -16 18 -17 15z"/>
<path d="M3606 4685 c4 -8 8 -15 10 -15 2 0 4 7 4 15 0 8 -4 15 -10 15 -5 0
-7 -7 -4 -15z"/>
<path d="M5787 4693 c-4 -3 -7 -17 -7 -30 0 -12 -4 -23 -10 -23 -5 0 -9 -10
-9 -22 1 -20 2 -20 6 -4 4 14 7 16 13 6 5 -8 9 6 11 34 2 25 4 46 3 46 0 0 -4
-3 -7 -7z"/>
<path d="M5026 4673 c-6 -14 -5 -15 5 -6 7 7 10 15 7 18 -3 3 -9 -2 -12 -12z"/>
<path d="M5420 4676 c0 -8 4 -17 9 -20 5 -4 7 3 4 14 -6 23 -13 26 -13 6z"/>
<path d="M4725 4672 c-2 -3 -2 -8 1 -13 5 -9 34 -1 34 10 0 8 -27 10 -35 3z"/>
<path d="M5551 4664 c0 -11 3 -14 6 -6 3 7 2 16 -1 19 -3 4 -6 -2 -5 -13z"/>
<path d="M6664 4673 c-13 -4 -5 -65 10 -75 6 -4 18 -7 26 -7 9 0 6 4 -7 9 -16
7 -21 17 -21 41 1 29 2 30 15 14 7 -11 13 -14 13 -8 0 14 -23 31 -36 26z"/>
<path d="M7040 4664 c0 -8 5 -12 10 -9 6 4 8 11 5 16 -9 14 -15 11 -15 -7z"/>
<path d="M7162 4660 c0 -14 2 -19 5 -12 2 6 2 18 0 25 -3 6 -5 1 -5 -13z"/>
<path d="M3360 4659 c0 -4 5 -9 11 -11 5 -2 13 -23 16 -47 5 -35 3 -42 -7 -36
-7 5 -11 4 -7 -1 3 -5 -1 -18 -9 -29 -8 -10 -14 -15 -14 -11 0 5 -7 3 -15 -4
-9 -7 -14 -19 -11 -26 3 -7 1 -16 -4 -19 -6 -4 -10 -1 -10 4 0 6 -11 11 -25
11 -14 0 -25 -4 -25 -10 0 -5 4 -10 9 -10 5 0 12 -10 16 -22 6 -19 8 -20 12
-6 5 19 30 31 45 21 6 -3 8 -1 5 4 -4 6 -1 13 6 16 16 6 20 -29 5 -57 -6 -12
-7 -18 -3 -14 4 4 17 3 29 -3 19 -9 19 -9 4 4 -31 25 -19 28 25 7 25 -13 34
-15 23 -5 -14 10 -16 15 -6 15 9 0 6 6 -8 16 -12 8 -22 20 -22 26 0 6 7 5 18
-3 15 -13 16 -12 3 4 -10 12 -17 15 -24 8 -7 -7 -5 -17 8 -31 10 -11 13 -20 7
-20 -6 0 -18 10 -26 22 -12 17 -13 25 -4 36 13 15 22 123 14 158 -5 19 -36 31
-36 13z m25 -136 c-1 -29 -19 -33 -40 -11 -7 8 -6 9 2 4 7 -4 17 2 23 14 14
26 16 25 15 -7z"/>
<path d="M3641 4654 c0 -11 3 -14 6 -6 3 7 2 16 -1 19 -3 4 -6 -2 -5 -13z"/>
<path d="M4560 4644 c0 -12 4 -24 8 -26 5 -1 12 -16 16 -33 5 -22 4 -26 -4
-15 -5 8 -10 11 -11 5 0 -5 -5 1 -10 15 -7 20 -8 19 -3 -10 3 -19 5 -45 6 -58
0 -15 5 -22 13 -18 8 3 16 0 19 -7 3 -7 4 -3 1 9 -7 28 3 54 21 54 8 0 14 7
14 16 0 8 -4 12 -10 9 -5 -3 -10 1 -10 10 0 8 -6 18 -14 21 -8 3 -17 12 -20
19 -5 14 11 15 32 2 7 -5 12 -3 12 7 0 9 -3 16 -7 17 -5 0 -18 2 -30 3 -18 2
-23 -2 -23 -20z"/>
<path d="M5750 4659 c0 -5 5 -7 10 -4 6 3 10 8 10 11 0 2 -4 4 -10 4 -5 0 -10
-5 -10 -11z"/>
<path d="M6603 4663 c-25 -9 -13 -23 20 -22 27 2 28 2 7 7 -23 4 -24 5 -5 13
12 4 14 8 5 8 -8 -1 -21 -3 -27 -6z"/>
<path d="M2863 4644 c9 -11 15 -23 12 -26 -3 -2 1 -5 8 -5 8 0 14 6 14 14 0 7
-3 11 -5 8 -3 -3 -15 3 -26 12 -21 18 -21 18 -3 -3z"/>
<path d="M6540 4653 c0 -5 4 -14 9 -21 7 -11 9 -11 14 1 3 8 3 18 0 21 -9 8
-23 7 -23 -1z"/>
<path d="M3240 4641 c0 -5 5 -13 10 -16 6 -3 10 -2 10 4 0 5 -4 13 -10 16 -5
3 -10 2 -10 -4z"/>
<path d="M4637 4644 c-8 -8 3 -34 14 -34 11 0 12 27 0 34 -4 3 -11 3 -14 0z"/>
<path d="M4969 4643 c0 -5 -2 -16 -4 -26 -2 -11 -1 -16 3 -13 8 8 14 46 7 46
-3 0 -5 -3 -6 -7z"/>
<path d="M7006 4643 c-10 -10 -7 -83 4 -83 6 0 11 -17 11 -37 1 -24 3 -29 6
-15 2 12 9 22 14 22 5 0 9 6 9 14 0 8 6 16 13 19 15 6 22 73 8 81 -5 4 -7 -4
-4 -16 5 -21 4 -21 -8 -7 -16 19 -44 30 -53 22z"/>
<path d="M2921 4624 c0 -11 3 -14 6 -6 3 7 2 16 -1 19 -3 4 -6 -2 -5 -13z"/>
<path d="M3358 4634 c-4 -5 0 -20 8 -34 7 -14 13 -18 13 -10 -1 24 -15 54 -21
44z"/>
<path d="M5196 4631 c-9 -14 -10 -90 -2 -99 5 -4 7 2 5 13 -1 11 1 28 4 38 15
37 16 47 7 52 -5 3 -11 1 -14 -4z"/>
<path d="M5312 4610 c0 -19 2 -27 5 -17 2 9 2 25 0 35 -3 9 -5 1 -5 -18z"/>
<path d="M5430 4629 c0 -5 5 -7 10 -4 6 3 10 8 10 11 0 2 -4 4 -10 4 -5 0 -10
-5 -10 -11z"/>
<path d="M5578 4616 c-3 -15 0 -29 6 -33 6 -3 8 -3 4 2 -4 4 -4 13 2 19 5 7 5
18 1 25 -6 9 -10 5 -13 -13z"/>
<path d="M7169 4625 c-3 -5 -6 -50 -6 -100 0 -49 2 -75 4 -56 3 26 7 31 14 20
6 -9 7 -2 3 21 -3 21 -2 30 3 23 6 -8 9 3 10 30 0 33 -1 37 -7 17 -6 -22 -8
-21 -11 15 -2 22 -7 36 -10 30z"/>
<path d="M3300 4611 c0 -5 -9 -13 -20 -16 -11 -3 -20 -13 -20 -21 0 -10 5 -12
13 -8 8 6 8 3 -1 -9 -8 -9 -12 -24 -10 -33 4 -22 36 -27 37 -6 0 10 3 36 6 60
3 23 4 42 1 42 -4 0 -6 -4 -6 -9z"/>
<path d="M3976 4605 c-3 -9 -6 -24 -5 -33 0 -9 5 -4 10 12 9 32 6 48 -5 21z"/>
<path d="M4452 4585 c0 -16 2 -22 5 -12 2 9 2 23 0 30 -3 6 -5 -1 -5 -18z"/>
<path d="M2886 4588 c3 -5 10 -6 15 -3 13 9 11 12 -6 12 -8 0 -12 -4 -9 -9z"/>
<path d="M2967 4593 c-11 -3 -16 -11 -13 -19 3 -7 1 -16 -4 -19 -6 -4 -10 -14
-9 -23 0 -12 2 -13 6 -3 5 11 7 11 14 0 6 -10 9 -6 9 14 0 18 5 27 16 27 8 0
13 4 10 9 -4 5 0 12 6 14 17 7 -10 7 -35 0z"/>
<path d="M5792 4580 c0 -14 2 -19 5 -12 2 6 2 18 0 25 -3 6 -5 1 -5 -13z"/>
<path d="M3540 4584 c0 -7 7 -25 15 -40 8 -16 15 -24 15 -18 0 7 -7 25 -15 40
-8 16 -15 24 -15 18z"/>
<path d="M4084 4573 c2 -10 6 -17 10 -16 15 3 16 11 2 22 -12 10 -14 9 -12 -6z"/>
<path d="M3591 4564 c0 -11 3 -14 6 -6 3 7 2 16 -1 19 -3 4 -6 -2 -5 -13z"/>
<path d="M6723 4562 c0 -21 15 -42 31 -42 6 0 3 7 -6 14 -21 15 -23 27 -5 24
6 -2 17 -14 24 -28 7 -15 12 -19 13 -9 0 8 -7 24 -15 35 -8 10 -15 15 -15 10
0 -5 -6 -3 -13 3 -11 8 -14 7 -14 -7z"/>
<path d="M2520 4550 c6 -11 15 -20 20 -20 5 0 7 -8 4 -17 -5 -15 -4 -16 5 -3
9 13 11 13 11 -3 0 -25 45 -40 73 -25 19 10 20 9 10 -4 -7 -8 -10 -18 -6 -22
4 -4 0 -4 -10 0 -14 5 -16 2 -10 -12 6 -17 5 -17 -10 -6 -10 8 -25 11 -39 7
-19 -6 -21 -5 -10 6 18 20 15 29 -10 26 -14 -1 -22 3 -20 11 1 6 -8 12 -19 12
-18 0 -19 -3 -9 -15 6 -8 21 -17 32 -21 16 -5 18 -8 7 -15 -11 -7 -11 -9 -1
-9 7 0 11 -4 7 -9 -3 -6 4 -9 15 -8 11 1 20 6 21 12 0 5 7 -3 14 -20 10 -21
14 -25 15 -11 0 16 2 17 17 5 15 -12 16 -12 10 5 -7 16 -5 17 9 5 10 -8 12
-15 5 -17 -6 -2 -11 -9 -11 -15 0 -5 3 -7 7 -4 3 4 13 2 20 -5 11 -9 17 -9 24
3 11 18 12 39 0 39 -18 0 1 38 22 44 19 5 20 8 7 16 -14 9 -7 15 15 10 6 -1 5
4 -2 11 -6 6 -9 17 -7 24 7 16 -56 45 -98 45 -22 0 -29 -3 -19 -9 9 -6 10 -10
2 -16 -9 -5 -9 -11 0 -22 10 -12 10 -16 -1 -23 -18 -11 -60 25 -60 52 0 11 -7
18 -20 18 -18 0 -19 -3 -10 -20z m133 -30 c-3 -12 -8 -19 -11 -16 -5 6 5 36
12 36 2 0 2 -9 -1 -20z m62 2 c-3 -3 -11 0 -18 7 -9 10 -8 11 6 5 10 -3 15 -9
12 -12z"/>
<path d="M2930 4559 c0 -5 5 -7 10 -4 6 3 10 8 10 11 0 2 -4 4 -10 4 -5 0 -10
-5 -10 -11z"/>
<path d="M3140 4560 c0 -5 5 -10 11 -10 5 0 7 5 4 10 -3 6 -8 10 -11 10 -2 0
-4 -4 -4 -10z"/>
<path d="M6412 4556 c7 -8 15 -12 17 -11 5 6 -10 25 -20 25 -5 0 -4 -6 3 -14z"/>
<path d="M2470 4550 c-11 -7 -11 -10 -2 -10 10 0 10 -3 0 -14 -15 -16 -31 -11
-22 7 3 7 -6 -1 -20 -18 -14 -16 -26 -26 -26 -21 0 5 -9 1 -20 -9 -11 -10 -20
-24 -20 -32 0 -7 -6 -13 -12 -13 -9 0 -8 -3 2 -9 19 -13 30 -5 25 19 -2 11 1
23 7 26 6 4 8 2 4 -4 -3 -6 -2 -13 4 -17 19 -12 -9 -47 -32 -39 -17 5 -19 3
-13 -15 5 -17 2 -21 -15 -21 -19 0 -20 -1 -6 -16 19 -18 21 -48 4 -41 -8 3
-14 -5 -15 -22 0 -14 -4 -39 -8 -55 -6 -21 -5 -27 4 -22 6 4 9 11 6 16 -3 4 4
6 15 3 22 -6 25 0 10 27 -7 12 -5 27 6 49 8 17 12 36 8 42 -4 8 -3 9 4 5 7 -4
12 -1 12 9 0 10 11 26 25 37 23 18 37 67 15 53 -16 -10 -12 5 9 31 10 13 21
21 25 17 3 -3 0 -13 -6 -22 -7 -9 -2 -7 11 4 20 17 23 17 18 3 -3 -9 1 -22 8
-28 15 -13 16 -51 1 -61 -4 -4 4 -6 18 -6 33 0 39 9 26 39 -10 22 -10 22 -7
-4 2 -15 0 -25 -4 -22 -5 3 -9 16 -9 29 0 13 -5 25 -12 27 -6 2 -12 14 -13 25
-1 13 3 19 10 16 8 -2 13 6 13 21 0 28 -5 31 -28 16z"/>
<path d="M3242 4540 c0 -14 2 -19 5 -12 2 6 2 18 0 25 -3 6 -5 1 -5 -13z"/>
<path d="M3631 4544 c0 -11 3 -14 6 -6 3 7 2 16 -1 19 -3 4 -6 -2 -5 -13z"/>
<path d="M4784 4546 c1 -8 5 -18 8 -22 4 -3 5 1 4 10 -1 8 -5 18 -8 22 -4 3
-5 -1 -4 -10z"/>
<path d="M5962 4540 c0 -14 2 -19 5 -12 2 6 2 18 0 25 -3 6 -5 1 -5 -13z"/>
<path d="M6519 4549 c-11 -6 -10 -9 3 -14 10 -4 22 -4 27 0 7 3 8 0 5 -9 -3
-9 -2 -16 4 -16 5 0 9 10 8 22 -1 22 -24 31 -47 17z"/>
<path d="M6587 4553 c-11 -10 -8 -63 3 -63 6 0 10 16 10 35 0 36 -2 40 -13 28z"/>
<path d="M6907 4498 c3 -35 9 -66 12 -71 4 -4 4 22 0 58 -9 85 -19 96 -12 13z"/>
<path d="M2926 4520 c9 -19 22 -38 28 -42 6 -4 7 -8 2 -8 -5 0 3 -9 18 -21 25
-20 37 -69 16 -69 -5 0 -10 -5 -10 -11 0 -6 7 -8 17 -5 9 4 20 1 25 -6 12 -19
10 -34 -3 -21 -6 6 -18 9 -25 6 -20 -8 -19 -116 2 -133 19 -17 15 -56 -9 -95
l-19 -30 26 30 c49 56 49 56 37 68 -14 14 -15 40 -1 32 6 -3 7 1 4 9 -3 9 -9
14 -13 12 -3 -2 -4 16 -2 41 2 31 7 43 16 39 10 -3 10 4 3 35 -6 21 -14 36
-19 34 -11 -7 -8 37 4 53 6 7 7 15 3 19 -3 3 -6 1 -6 -5 0 -7 -4 -12 -10 -12
-13 0 -13 27 0 32 5 2 11 13 13 25 2 12 6 26 10 29 4 4 7 12 7 18 0 6 -7 0
-16 -12 -20 -29 -71 -28 -97 2 -18 20 -18 20 -1 -14z"/>
<path d="M3523 4520 c-6 -17 -8 -28 -3 -25 5 3 11 -1 13 -7 4 -10 6 -9 6 1 1
11 4 11 19 0 15 -12 16 -12 5 2 -7 8 -16 25 -20 37 -8 21 -9 21 -20 -8z"/>
<path d="M5651 4543 c-1 -6 -4 -20 -7 -30 -5 -17 -5 -17 6 0 6 10 9 23 6 30
-3 9 -5 9 -5 0z"/>
<path d="M5932 4530 c0 -14 2 -19 5 -12 2 6 2 18 0 25 -3 6 -5 1 -5 -13z"/>
<path d="M6448 4543 c6 -2 18 -2 25 0 6 3 1 5 -13 5 -14 0 -19 -2 -12 -5z"/>
<path d="M6934 4526 c-3 -14 -4 -33 -1 -43 3 -12 5 -9 6 9 0 15 6 30 11 33 13
8 13 25 0 25 -5 0 -12 -11 -16 -24z"/>
<path d="M3749 4523 c-12 -16 -12 -17 2 -6 9 7 18 10 21 7 3 -3 9 -1 13 5 11
18 -22 12 -36 -6z"/>
<path d="M3810 4531 c0 -5 7 -12 16 -15 14 -5 15 -4 4 9 -14 17 -20 19 -20 6z"/>
<path d="M4810 4530 c0 -5 5 -10 10 -10 6 0 10 5 10 10 0 6 -4 10 -10 10 -5 0
-10 -4 -10 -10z"/>
<path d="M4097 4512 c1 -8 3 -16 3 -18 0 -3 5 -2 10 1 6 3 10 11 10 16 0 6 -4
8 -9 5 -5 -4 -11 -3 -14 1 -2 5 -2 2 0 -5z"/>
<path d="M5475 4520 c3 -5 8 -10 11 -10 2 0 4 5 4 10 0 6 -5 10 -11 10 -5 0
-7 -4 -4 -10z"/>
<path d="M6366 4522 c-3 -5 1 -9 9 -9 8 0 12 4 9 9 -3 4 -7 8 -9 8 -2 0 -6 -4
-9 -8z"/>
<path d="M7605 4522 c3 -3 0 -11 -6 -19 -6 -7 -8 -13 -4 -13 4 0 -3 -17 -15
-37 -17 -29 -18 -34 -4 -22 16 13 17 12 12 -9 -4 -12 -2 -20 3 -17 4 3 8 18 7
33 -3 51 18 88 38 68 6 -6 13 -18 17 -26 5 -13 5 -13 6 0 1 22 -21 47 -41 47
-10 0 -16 -3 -13 -5z"/>
<path d="M5181 4488 c-1 -29 2 -36 14 -32 10 4 12 11 6 22 -4 10 -11 24 -14
32 -3 8 -6 -2 -6 -22z"/>
<path d="M5301 4504 c0 -11 3 -14 6 -6 3 7 2 16 -1 19 -3 4 -6 -2 -5 -13z"/>
<path d="M6660 4505 c0 -8 5 -15 10 -15 6 0 10 -7 10 -15 0 -8 5 -15 11 -15 5
0 7 5 3 11 -3 6 0 15 7 20 11 7 10 9 -3 9 -10 0 -18 5 -18 10 0 6 -4 10 -10
10 -5 0 -10 -7 -10 -15z"/>
<path d="M6718 4512 c7 -5 10 -16 6 -25 -3 -9 -2 -17 4 -17 15 0 8 43 -8 47
-11 4 -12 2 -2 -5z"/>
<path d="M6893 4445 c0 -44 2 -61 4 -37 2 23 2 59 0 80 -2 20 -4 1 -4 -43z"/>
<path d="M7050 4505 c0 -8 5 -15 10 -15 6 0 10 7 10 15 0 8 -4 15 -10 15 -5 0
-10 -7 -10 -15z"/>
<path d="M7558 4503 c-16 -8 -28 -18 -28 -23 0 -4 -3 -16 -7 -26 -4 -12 -3
-15 5 -10 7 4 12 2 12 -4 0 -18 29 16 33 37 1 10 6 24 10 31 9 14 10 14 -25
-5z m2 -34 c-7 -11 -14 -19 -16 -16 -7 7 7 37 17 37 6 0 5 -9 -1 -21z"/>
<path d="M3100 4490 c0 -13 5 -18 15 -14 12 5 13 10 4 20 -15 19 -19 18 -19
-6z"/>
<path d="M3160 4498 c0 -4 5 -8 10 -8 6 0 10 -8 10 -17 0 -14 2 -15 13 -4 10
11 9 14 -1 18 -6 3 -10 8 -8 12 3 4 -1 8 -9 8 -8 0 -15 -4 -15 -9z"/>
<path d="M3764 4498 c-3 -4 -9 -6 -14 -3 -16 10 -17 -10 -3 -40 13 -29 14 -29
8 -3 -3 15 -1 30 5 33 5 3 10 1 10 -6 0 -8 5 -7 17 2 9 8 18 13 20 12 1 -2 3
0 3 5 0 10 -39 11 -46 0z"/>
<path d="M4714 4405 c0 -60 1 -84 3 -52 2 32 2 81 0 110 -2 29 -3 3 -3 -58z"/>
<path d="M5162 4469 c-2 -39 1 -48 18 -52 23 -6 27 8 6 20 -8 4 -16 24 -19 43
-3 31 -4 29 -5 -11z"/>
<path d="M3831 4484 c0 -11 3 -14 6 -6 3 7 2 16 -1 19 -3 4 -6 -2 -5 -13z"/>
<path d="M6213 4415 c-1 -49 2 -81 4 -71 3 11 12 26 20 34 8 8 12 21 9 29 -3
8 -6 27 -6 41 0 20 -3 23 -9 13 -7 -11 -10 -7 -14 15 -2 16 -4 -11 -4 -61z
m14 3 c-3 -8 -6 -5 -6 6 -1 11 2 17 5 13 3 -3 4 -12 1 -19z"/>
<path d="M6623 4490 c-13 -5 -23 -12 -23 -16 0 -3 6 -4 14 -1 10 4 12 0 9 -14
-5 -19 -6 -19 -30 3 -17 16 -22 18 -18 6 4 -9 13 -19 21 -22 9 -3 12 -10 9
-16 -4 -6 -11 -7 -17 -4 -7 4 -8 2 -4 -4 9 -14 57 17 52 33 -2 6 1 18 6 28 5
9 7 17 6 16 -2 0 -13 -4 -25 -9z"/>
<path d="M4559 4408 c0 -46 -2 -96 -4 -113 -5 -52 7 -145 18 -138 6 4 8 0 4
-10 -7 -20 10 -66 33 -85 9 -8 10 -11 2 -7 -11 6 -12 3 -3 -14 7 -11 16 -21
21 -21 6 0 9 -5 8 -12 -2 -7 14 -12 40 -13 45 -3 56 9 20 21 -28 8 -62 44 -66
70 -2 10 -10 31 -18 45 -11 23 -11 29 1 39 10 9 13 28 10 72 -3 56 -15 95 -15
52 0 -16 -2 -17 -10 -4 -5 8 -10 50 -10 92 0 79 -6 108 -21 108 -5 0 -9 -37
-10 -82z m18 -40 c-3 -7 -5 -2 -5 12 0 14 2 19 5 13 2 -7 2 -19 0 -25z m40
-267 c8 -18 9 -30 3 -26 -5 3 -10 13 -10 21 0 8 -4 12 -10 9 -6 -4 -7 1 -3 11
4 12 3 15 -5 10 -7 -4 -12 -2 -12 4 0 22 24 3 37 -29z m33 -59 c0 -5 -7 -9
-15 -9 -8 0 -12 4 -9 9 3 4 9 8 15 8 5 0 9 -4 9 -8z"/>
<path d="M7082 4470 c0 -14 2 -19 5 -12 2 6 2 18 0 25 -3 6 -5 1 -5 -13z"/>
<path d="M7630 4470 c6 -11 12 -20 14 -20 2 0 2 9 -1 20 -3 11 -9 20 -15 20
-5 0 -4 -9 2 -20z"/>
<path d="M3494 4455 c-14 -16 -18 -26 -10 -30 6 -3 0 -3 -13 -1 -30 6 -15 -9
19 -19 14 -3 20 -3 15 2 -13 10 -13 22 3 51 16 28 12 28 -14 -3z"/>
<path d="M6345 4470 c-3 -5 -1 -10 4 -10 6 0 11 5 11 10 0 6 -2 10 -4 10 -3 0
-8 -4 -11 -10z"/>
<path d="M3721 4454 c0 -11 3 -14 6 -6 3 7 2 16 -1 19 -3 4 -6 -2 -5 -13z"/>
<path d="M7186 4440 c3 -19 8 -41 10 -48 2 -7 -1 -10 -6 -7 -6 3 -10 2 -10 -2
0 -5 9 -14 21 -21 12 -8 19 -20 16 -31 -3 -11 2 -17 14 -17 24 0 23 4 0 40
-11 16 -17 34 -15 41 3 7 -4 28 -16 46 l-20 34 6 -35z"/>
<path d="M4101 4435 c-1 -24 -3 -27 -12 -15 -8 11 -9 7 -6 -20 3 -19 0 -43 -5
-52 -16 -32 -1 -19 19 15 13 23 17 42 12 67 -6 34 -6 34 -8 5z"/>
<path d="M4302 4430 c0 -19 2 -27 5 -17 2 9 2 25 0 35 -3 9 -5 1 -5 -18z"/>
<path d="M2968 4428 c8 -9 11 -22 7 -28 -3 -5 -1 -10 4 -10 17 0 13 26 -6 41
-16 13 -17 12 -5 -3z"/>
<path d="M3607 4423 c4 -10 2 -14 -4 -10 -6 4 -18 -1 -26 -11 -15 -16 -14 -18
9 -20 14 -1 23 2 19 8 -3 6 -2 10 3 10 16 0 22 28 7 34 -10 3 -12 0 -8 -11z"/>
<path d="M7296 4424 c-17 -12 -17 -14 -4 -14 9 0 20 5 23 11 11 17 2 18 -19 3z"/>
<path d="M7617 4423 c-2 -10 -8 -25 -11 -33 -5 -11 -1 -16 13 -16 14 0 17 4
12 15 -5 7 -6 22 -4 32 7 24 -3 25 -10 2z"/>
<path d="M7646 4423 c-6 -14 -5 -15 5 -6 7 7 10 15 7 18 -3 3 -9 -2 -12 -12z"/>
<path d="M3721 4414 c0 -11 3 -14 6 -6 3 7 2 16 -1 19 -3 4 -6 -2 -5 -13z"/>
<path d="M3781 4406 c-1 -24 1 -27 14 -16 16 14 21 25 6 15 -5 -3 -12 3 -14
12 -3 11 -5 6 -6 -11z"/>
<path d="M3822 4405 c0 -16 2 -22 5 -12 2 9 2 23 0 30 -3 6 -5 -1 -5 -18z"/>
<path d="M3956 4414 c-4 -9 -4 -19 -1 -22 3 -3 5 1 5 8 0 7 2 11 5 8 10 -9 -7
-38 -18 -31 -5 3 -7 2 -4 -4 3 -5 -8 -20 -25 -33 -26 -19 -36 -21 -59 -13 -24
9 -27 8 -21 -6 5 -14 3 -14 -11 -3 -14 12 -16 11 -12 -8 6 -33 -4 -53 -22 -39
-8 7 -10 15 -4 18 5 4 3 14 -6 26 -15 19 -15 19 -8 -5 7 -22 6 -23 -8 -12 -10
8 -14 23 -11 40 4 22 2 24 -7 12 -9 -12 -10 -11 -6 7 3 13 -1 24 -9 27 -18 7
-19 -35 -2 -52 7 -7 9 -12 5 -12 -3 0 11 -16 31 -36 20 -20 36 -40 34 -45 -1
-5 7 -4 17 3 13 8 17 16 11 23 -6 8 -5 18 4 30 10 15 15 15 21 4 13 -19 15
-59 4 -60 -5 -1 -13 -2 -18 -3 -5 0 -13 -4 -16 -8 -4 -4 4 -5 19 -2 15 2 26 0
26 -7 0 -15 76 -5 118 16 17 9 32 23 32 31 0 8 -4 13 -8 10 -4 -2 -8 7 -9 22
0 15 1 19 4 9 2 -9 9 -15 14 -11 5 3 6 10 3 16 -4 7 -2 8 5 4 9 -6 9 -11 0
-22 -9 -11 -9 -14 0 -14 7 0 9 -5 5 -12 -5 -9 -2 -8 9 1 10 8 15 16 12 19 -2
3 3 11 13 18 15 12 15 13 -5 8 -15 -4 -23 0 -28 15 -3 11 -3 26 1 32 4 7 3 9
-4 5 -6 -3 -18 1 -26 10 -9 8 -13 20 -10 26 4 7 2 8 -4 4 -7 -4 -12 -1 -12 8
0 21 -16 20 -24 0z m25 -51 c-12 -20 -14 -14 -5 12 4 9 9 14 11 11 3 -2 0 -13
-6 -23z m13 -27 c-3 -9 -10 -16 -15 -16 -5 0 -4 9 3 20 14 22 21 20 12 -4z"/>
<path d="M5286 4415 c-3 -8 -1 -15 4 -15 6 0 10 7 10 15 0 8 -2 15 -4 15 -2 0
-6 -7 -10 -15z"/>
<path d="M5776 4405 c-4 -14 -2 -33 3 -43 7 -13 10 -7 9 26 0 48 -3 52 -12 17z"/>
<path d="M7330 4409 c0 -13 5 -31 10 -39 7 -11 8 -5 4 20 -8 43 -14 51 -14 19z"/>
<path d="M7516 4413 c-6 -14 -5 -15 5 -6 7 7 10 15 7 18 -3 3 -9 -2 -12 -12z"/>
<path d="M3120 4410 c0 -5 5 -10 11 -10 5 0 7 5 4 10 -3 6 -8 10 -11 10 -2 0
-4 -4 -4 -10z"/>
<path d="M5915 4335 c-4 -48 -5 -89 -2 -91 3 -3 8 33 12 81 4 47 5 88 2 91 -2
3 -8 -34 -12 -81z"/>
<path d="M2750 4406 c0 -2 8 -10 18 -17 15 -13 16 -12 3 4 -13 16 -21 21 -21
13z"/>
<path d="M6610 4395 c0 -8 2 -15 4 -15 2 0 6 7 10 15 3 8 1 15 -4 15 -6 0 -10
-7 -10 -15z"/>
<path d="M2412 4369 c6 -16 12 -28 14 -26 5 5 -13 57 -20 57 -3 0 0 -14 6 -31z"/>
<path d="M2430 4388 c0 -4 4 -8 9 -8 6 0 8 -10 6 -21 -3 -12 -1 -19 2 -15 13
13 10 53 -4 53 -7 0 -13 -4 -13 -9z"/>
<path d="M3283 4385 c-4 -5 -3 -7 2 -3 4 4 14 0 21 -10 9 -11 13 -13 14 -4 0
7 4 10 10 7 5 -3 7 0 4 9 -6 16 -42 17 -51 1z"/>
<path d="M4432 4380 c0 -14 2 -19 5 -12 2 6 2 18 0 25 -3 6 -5 1 -5 -13z"/>
<path d="M5152 4380 c0 -14 2 -19 5 -12 2 6 2 18 0 25 -3 6 -5 1 -5 -13z"/>
<path d="M5951 4384 c0 -11 3 -14 6 -6 3 7 2 16 -1 19 -3 4 -6 -2 -5 -13z"/>
<path d="M7300 4386 c0 -8 4 -17 9 -20 5 -4 7 3 4 14 -6 23 -13 26 -13 6z"/>
<path d="M2610 4372 c-8 -9 -14 -20 -12 -25 1 -4 4 -18 6 -30 3 -12 5 -24 6
-27 2 -3 2 -8 2 -11 -1 -4 8 -4 20 -1 21 5 21 6 2 12 -19 7 -19 7 1 12 16 5
17 6 3 7 -10 0 -18 6 -18 12 0 5 5 7 12 3 7 -5 8 -3 3 6 -5 8 -1 18 11 28 18
13 18 14 -3 7 -18 -5 -22 -3 -17 9 8 20 3 20 -16 -2z m10 -27 c0 -8 -2 -15 -4
-15 -2 0 -6 7 -10 15 -3 8 -1 15 4 15 6 0 10 -7 10 -15z"/>
<path d="M6626 4374 c-3 -9 -4 -20 0 -25 3 -5 2 -15 -3 -21 -5 -9 -10 -3 -15
17 -6 24 -6 22 -3 -10 3 -22 5 -89 6 -150 0 -71 3 -103 9 -90 8 18 9 17 9 -7
1 -18 6 -28 16 -28 11 0 15 12 15 49 0 32 5 53 15 61 11 9 13 16 5 24 -5 5
-10 17 -10 26 0 9 -9 25 -19 35 -20 17 -20 16 -24 -41 -2 -46 -3 -41 -4 26 -1
60 1 79 8 65 9 -19 9 -18 5 2 -2 13 0 26 5 29 5 3 9 10 9 15 0 6 -5 7 -11 3
-8 -4 -9 0 -4 15 7 24 0 29 -9 5z"/>
<path d="M7509 4385 c-1 -3 -2 -11 -3 -17 0 -7 -8 -13 -16 -13 -8 -1 -14 -6
-13 -12 2 -7 -5 -12 -15 -13 -79 -5 -81 -5 -69 -16 7 -6 25 -15 41 -18 27 -7
28 -6 16 10 -13 15 -11 16 30 11 25 -3 39 -3 32 0 -6 2 -9 10 -6 15 8 13 14
58 8 58 -2 0 -5 -2 -5 -5z m-14 -44 c3 -5 2 -12 -3 -15 -5 -3 -9 1 -9 9 0 17
3 19 12 6z"/>
<path d="M3577 4353 c5 -12 -8 -18 -30 -14 -5 1 -6 -3 -2 -9 4 -7 12 -7 24 0
23 12 34 37 16 37 -7 0 -11 -6 -8 -14z"/>
<path d="M5268 4346 c-17 -23 -17 -24 2 -19 11 3 20 14 20 24 0 24 -1 24 -22
-5z"/>
<path d="M6695 4360 c-3 -5 -1 -10 4 -10 6 0 11 5 11 10 0 6 -2 10 -4 10 -3 0
-8 -4 -11 -10z"/>
<path d="M6819 4334 c-1 -32 -3 -34 -8 -14 -3 14 -11 26 -18 27 -7 2 -6 -7 4
-27 9 -19 12 -38 7 -52 -8 -22 -8 -22 -15 7 l-7 30 -1 -32 c0 -17 4 -35 9 -38
6 -3 10 -11 10 -16 0 -6 -4 -7 -10 -4 -6 4 -10 -6 -10 -24 0 -37 19 -52 22
-17 1 14 2 39 3 55 2 35 13 53 26 45 7 -4 8 11 3 42 -8 62 -14 68 -15 18z"/>
<path d="M7069 4343 c-3 -18 -1 -31 4 -30 6 1 14 -9 18 -23 5 -20 7 -16 7 20
1 33 -2 39 -8 25 -7 -18 -8 -16 -12 10 l-3 30 -6 -32z"/>
<path d="M5762 4340 c0 -14 2 -19 5 -12 2 6 2 18 0 25 -3 6 -5 1 -5 -13z"/>
<path d="M6232 4340 c0 -14 2 -19 5 -12 2 6 2 18 0 25 -3 6 -5 1 -5 -13z"/>
<path d="M5787 4275 c3 -38 7 -72 9 -74 7 -8 2 94 -6 119 -5 15 -6 -4 -3 -45z"/>
<path d="M6670 4330 c0 -5 4 -10 9 -10 6 0 13 5 16 10 3 6 -1 10 -9 10 -9 0
-16 -4 -16 -10z"/>
<path d="M6906 4323 c-6 -14 -5 -15 5 -6 7 7 10 15 7 18 -3 3 -9 -2 -12 -12z"/>
<path d="M2728 4319 c-2 -7 -14 -14 -27 -16 -13 -2 -20 1 -16 7 3 5 0 7 -9 4
-8 -3 -13 -14 -11 -25 3 -14 -2 -19 -17 -19 -26 0 -16 -13 13 -17 12 -2 18 1
14 7 -6 9 17 15 40 10 6 -1 7 2 2 6 -4 4 0 16 10 26 9 10 14 21 11 24 -3 3 -8
0 -10 -7z m-23 -29 c-3 -5 -12 -10 -18 -10 -7 0 -6 4 3 10 19 12 23 12 15 0z"/>
<path d="M3343 4315 c1 -13 8 -21 19 -21 20 0 24 21 6 32 -7 4 -8 3 -4 -4 4
-7 3 -12 -3 -12 -5 0 -11 6 -14 13 -3 6 -5 3 -4 -8z"/>
<path d="M4422 4290 c0 -19 2 -27 5 -17 2 9 2 25 0 35 -3 9 -5 1 -5 -18z"/>
<path d="M5273 4285 c0 -22 2 -30 4 -17 2 12 2 30 0 40 -3 9 -5 -1 -4 -23z"/>
<path d="M6351 4304 c0 -11 3 -14 6 -6 3 7 2 16 -1 19 -3 4 -6 -2 -5 -13z"/>
<path d="M6724 4299 c0 -10 4 -19 8 -19 4 0 8 6 8 14 0 8 -4 17 -8 20 -4 2 -8
-4 -8 -15z"/>
<path d="M7533 4300 c-10 -11 -25 -20 -35 -20 -10 0 -18 -4 -18 -9 0 -5 11 -8
24 -7 13 0 22 5 18 10 -3 5 2 7 11 3 18 -7 48 17 46 36 0 9 -2 8 -6 0 -2 -7
-9 -13 -14 -13 -6 0 -7 5 -4 10 11 18 -5 11 -22 -10z"/>
<path d="M3032 4280 c0 -14 2 -19 5 -12 2 6 2 18 0 25 -3 6 -5 1 -5 -13z"/>
<path d="M3420 4290 c-11 -8 -7 -9 15 -4 37 8 45 14 19 14 -10 0 -26 -5 -34
-10z"/>
<path d="M7237 4293 c-3 -5 6 -9 20 -10 19 -1 22 1 12 8 -17 11 -26 11 -32 2z"/>
<path d="M5501 4274 c0 -11 3 -14 6 -6 3 7 2 16 -1 19 -3 4 -6 -2 -5 -13z"/>
<path d="M5761 4274 c0 -11 3 -14 6 -6 3 7 2 16 -1 19 -3 4 -6 -2 -5 -13z"/>
<path d="M6903 4215 c0 -44 2 -61 4 -37 2 23 2 59 0 80 -2 20 -4 1 -4 -43z"/>
<path d="M3370 4276 c0 -2 7 -7 16 -10 8 -3 12 -2 9 4 -6 10 -25 14 -25 6z"/>
<path d="M3434 4268 c-9 -14 12 -16 36 -3 l25 13 -29 -1 c-15 -1 -30 -5 -32
-9z"/>
<path d="M6226 4248 c-3 -13 -5 -32 -5 -43 1 -11 5 -2 10 19 10 42 6 62 -5 24z"/>
<path d="M6361 4254 c0 -11 3 -14 6 -6 3 7 2 16 -1 19 -3 4 -6 -2 -5 -13z"/>
<path d="M2282 4235 c0 -16 2 -22 5 -12 2 9 2 23 0 30 -3 6 -5 -1 -5 -18z"/>
<path d="M5030 4240 c13 -11 25 -20 28 -20 3 0 -3 9 -13 20 -10 11 -23 20 -28
20 -6 0 0 -9 13 -20z"/>
<path d="M6201 4214 c1 -27 4 -60 9 -74 5 -16 6 1 4 44 -3 78 -15 104 -13 30z"/>
<path d="M6821 4227 c0 -22 3 -36 8 -32 6 3 12 -17 14 -47 3 -50 3 -49 5 15 1
40 -2 66 -7 62 -5 -3 -12 5 -14 17 -3 14 -5 8 -6 -15z"/>
<path d="M7440 4247 c0 -8 7 -14 15 -14 11 0 12 4 4 14 -6 7 -13 13 -15 13 -2
0 -4 -6 -4 -13z"/>
<path d="M3218 4226 c-15 -11 -15 -17 -5 -48 l13 -36 10 44 c12 49 7 59 -18
40z"/>
<path d="M4302 4215 c0 -16 2 -22 5 -12 2 9 2 23 0 30 -3 6 -5 -1 -5 -18z"/>
<path d="M4400 4231 c0 -5 -3 -17 -7 -27 -4 -11 -3 -15 4 -11 14 9 24 47 12
47 -5 0 -9 -4 -9 -9z"/>
<path d="M4722 4215 c0 -16 2 -22 5 -12 2 9 2 23 0 30 -3 6 -5 -1 -5 -18z"/>
<path d="M6743 4193 c1 -29 5 -53 10 -53 9 0 7 48 -3 80 -7 19 -8 12 -7 -27z"/>
<path d="M6923 4200 c0 -25 2 -35 4 -22 2 12 2 32 0 45 -2 12 -4 2 -4 -23z"/>
<path d="M4944 4209 c-3 -6 -2 -15 3 -20 5 -5 9 -1 9 11 0 23 -2 24 -12 9z"/>
<path d="M6347 4199 c-5 -20 -5 -20 14 -3 23 20 23 24 5 24 -7 0 -16 -9 -19
-21z"/>
<path d="M7368 4213 c7 -3 16 -2 19 1 4 3 -2 6 -13 5 -11 0 -14 -3 -6 -6z"/>
<path d="M2313 4185 c0 -18 5 -25 18 -25 23 0 26 35 3 44 -22 8 -21 9 -21 -19z"/>
<path d="M5903 4165 c0 -27 2 -38 4 -22 2 15 2 37 0 50 -2 12 -4 0 -4 -28z"/>
<path d="M7102 4185 c0 -16 2 -22 5 -12 2 9 2 23 0 30 -3 6 -5 -1 -5 -18z"/>
<path d="M4214 4151 c1 -35 5 -55 14 -57 7 -1 8 0 2 3 -5 2 -10 9 -10 14 0 6
6 7 13 3 9 -6 9 -5 0 7 -6 8 -13 30 -16 49 -3 21 -4 13 -3 -19z"/>
<path d="M5770 4184 c0 -10 5 -26 10 -34 8 -11 9 -7 4 15 -8 37 -14 45 -14 19z"/>
<path d="M7052 4180 c0 -14 2 -19 5 -12 2 6 2 18 0 25 -3 6 -5 1 -5 -13z"/>
<path d="M2991 4183 c-1 -6 -4 -20 -7 -30 -5 -17 -5 -17 6 0 6 10 9 23 6 30
-3 9 -5 9 -5 0z"/>
<path d="M4918 4173 c0 -5 -2 -12 -3 -18 -2 -5 -3 -16 -4 -22 0 -7 -6 -13 -12
-13 -5 0 -7 6 -3 13 5 8 2 7 -9 -2 -12 -9 -14 -17 -7 -26 5 -6 8 -14 5 -17 -3
-2 2 -5 10 -5 12 0 12 3 2 16 -10 12 -9 14 5 8 10 -3 17 -3 17 1 -3 19 2 33
10 27 5 -3 13 -1 16 5 4 6 1 9 -7 8 -7 -2 -12 5 -12 15 2 17 -4 24 -8 10z"/>
<path d="M5532 4168 c-14 -14 -16 -54 -3 -62 5 -3 7 -25 5 -49 -3 -35 -2 -37
5 -12 l8 30 5 -30 c4 -20 5 -15 3 13 -3 50 1 53 15 10 l10 -33 -6 35 c-3 19
-5 45 -6 58 0 27 -18 30 -18 2 0 -11 -4 -20 -10 -20 -13 0 -13 12 0 44 11 29
9 31 -8 14z"/>
<path d="M5040 4163 c5 -2 8 -8 6 -12 -3 -4 0 -13 5 -21 8 -12 9 -9 7 9 -2 14
-9 26 -16 27 -7 1 -8 0 -2 -3z"/>
<path d="M4407 4147 c-3 -8 -1 -20 4 -28 6 -10 9 -7 9 14 0 29 -5 35 -13 14z"/>
<path d="M4621 4143 c7 -12 15 -20 18 -17 3 2 -3 12 -13 22 -17 16 -18 16 -5
-5z"/>
<path d="M6812 4140 c0 -14 2 -19 5 -12 2 6 2 18 0 25 -3 6 -5 1 -5 -13z"/>
<path d="M2318 4143 c-21 -5 -24 -23 -4 -23 10 0 13 -12 11 -47 -3 -32 -1 -42
6 -33 7 12 10 10 16 -10 6 -24 7 -23 18 10 14 39 10 61 -9 54 -9 -3 -11 4 -8
26 4 30 2 32 -30 23z"/>
<path d="M7102 4130 c0 -14 2 -19 5 -12 2 6 2 18 0 25 -3 6 -5 1 -5 -13z"/>
<path d="M3241 4124 c0 -11 3 -14 6 -6 3 7 2 16 -1 19 -3 4 -6 -2 -5 -13z"/>
<path d="M6680 4123 c0 -10 5 -25 10 -33 8 -12 10 -9 10 12 0 15 -4 30 -10 33
-5 3 -10 -2 -10 -12z"/>
<path d="M7490 4132 c0 -7 -3 -11 -7 -10 -15 3 -43 -14 -37 -23 3 -5 0 -10 -5
-10 -20 -3 -26 -5 -48 -17 -13 -7 -23 -18 -23 -25 0 -9 2 -9 8 0 4 7 27 19 50
27 40 14 42 14 54 -7 18 -30 18 -79 0 -72 -7 2 -11 1 -8 -3 3 -5 -4 -14 -14
-22 -10 -8 -17 -17 -14 -22 8 -13 24 -9 22 5 -2 6 3 11 10 9 8 -1 11 2 6 9 -5
8 -2 10 7 7 25 -10 24 85 -1 107 -11 10 -20 23 -20 29 0 7 3 7 8 1 4 -5 14
-16 23 -22 13 -11 15 -9 14 7 -2 23 -25 53 -25 32z"/>
<path d="M2406 4117 c3 -10 9 -15 12 -12 3 3 0 11 -7 18 -10 9 -11 8 -5 -6z"/>
<path d="M4724 4115 c3 -23 12 -26 13 -5 1 11 -2 20 -7 20 -4 0 -7 -7 -6 -15z"/>
<path d="M4930 4100 c-6 -11 -8 -20 -6 -20 3 0 10 9 16 20 6 11 8 20 6 20 -3
0 -10 -9 -16 -20z"/>
<path d="M3221 4093 c-1 -12 4 -25 9 -28 12 -7 12 2 0 30 -8 19 -9 19 -9 -2z"/>
<path d="M4759 4093 c-13 -17 -13 -17 6 -3 11 8 22 16 24 17 2 2 0 3 -6 3 -6
0 -17 -8 -24 -17z"/>
<path d="M4975 4093 c-5 -15 -7 -15 -15 -3 -6 9 -10 10 -10 3 0 -6 5 -15 10
-18 17 -10 0 -26 -23 -23 -18 2 -23 -3 -27 -27 -3 -20 -12 -31 -25 -33 -11 -2
-22 -6 -25 -9 -3 -3 5 -3 18 0 13 3 22 1 22 -6 0 -6 7 -2 15 11 12 16 24 21
45 18 16 -2 27 0 25 4 -2 4 4 15 15 25 24 22 26 40 4 31 -20 -8 -36 2 -28 16
4 7 9 7 13 0 4 -7 12 -7 20 -3 11 7 9 11 -7 20 -16 9 -21 7 -27 -6z m19 -46
c7 4 3 0 -7 -10 -23 -20 -30 -17 -20 9 4 11 8 13 11 6 2 -8 9 -9 16 -5z"/>
<path d="M5231 4092 c-8 -14 -6 -19 5 -19 7 0 14 9 14 19 0 10 -2 18 -5 18 -2
0 -9 -8 -14 -18z"/>
<path d="M6343 4057 c0 -36 3 -53 8 -45 11 16 10 56 0 83 -5 13 -8 0 -8 -38z"/>
<path d="M2936 4063 c-13 -28 -14 -34 -3 -24 12 9 16 9 19 -1 3 -7 5 4 5 25 0
20 -1 37 -2 37 -1 0 -9 -17 -19 -37z"/>
<path d="M5886 4024 c-4 -42 -5 -79 -2 -82 4 -3 6 7 6 22 0 17 4 25 11 21 5
-4 8 -21 5 -38 l-5 -32 11 34 c9 25 9 44 0 77 -6 24 -9 50 -6 59 3 8 2 15 -4
15 -5 0 -12 -34 -16 -76z"/>
<path d="M5916 4085 c-9 -26 -7 -32 5 -12 6 10 9 21 6 23 -2 3 -7 -2 -11 -11z"/>
<path d="M6195 4056 c-4 -26 -5 -65 -2 -87 3 -21 1 -39 -4 -39 -5 0 -8 -21 -7
-47 l1 -48 4 43 c2 23 8 40 13 37 5 -3 7 -20 3 -38 -3 -18 -3 -29 1 -26 4 4 9
19 12 34 3 16 9 36 14 46 6 10 10 24 10 31 -1 7 -7 0 -15 -17 l-14 -30 5 35
c3 26 2 30 -5 15 -7 -16 -8 -12 -8 18 1 34 2 37 14 21 12 -16 13 -16 13 8 0
15 -7 29 -16 32 -12 5 -13 10 -6 19 6 7 7 18 2 27 -6 9 -11 -2 -15 -34z"/>
<path d="M3195 4046 c0 -44 10 -54 25 -26 8 15 8 20 1 16 -7 -5 -10 1 -8 15 1
12 -2 23 -8 25 -5 2 -10 -11 -10 -30z"/>
<path d="M5111 4064 c0 -11 3 -14 6 -6 3 7 2 16 -1 19 -3 4 -6 -2 -5 -13z"/>
<path d="M6914 3970 c0 -63 1 -89 3 -57 2 31 2 83 0 115 -2 31 -3 5 -3 -58z"/>
<path d="M7523 4048 c1 -15 6 -23 11 -18 4 4 4 16 -2 26 -9 16 -10 14 -9 -8z"/>
<path d="M2985 4049 c-10 -15 3 -25 16 -12 7 7 7 13 1 17 -6 3 -14 1 -17 -5z"/>
<path d="M6843 4010 c0 -30 2 -43 4 -27 2 15 2 39 0 55 -2 15 -4 2 -4 -28z"/>
<path d="M6621 4034 c0 -11 3 -14 6 -6 3 7 2 16 -1 19 -3 4 -6 -2 -5 -13z"/>
<path d="M7318 4023 c-21 -14 -38 -30 -38 -35 0 -5 -5 -6 -12 -2 -7 4 -8 3 -4
-4 5 -8 17 -6 42 6 20 9 31 18 25 20 -6 2 -1 12 11 23 32 26 20 22 -24 -8z"/>
<path d="M5772 4020 c0 -14 2 -19 5 -12 2 6 2 18 0 25 -3 6 -5 1 -5 -13z"/>
<path d="M7425 4031 c3 -2 -3 -10 -13 -18 -15 -12 -14 -13 8 -1 14 7 28 11 33
10 4 -1 7 2 7 7 0 6 -9 9 -20 8 -10 -1 -17 -3 -15 -6z"/>
<path d="M2504 4019 c-4 -7 -3 -10 3 -6 6 4 15 -5 22 -20 9 -21 9 -29 -3 -42
-12 -14 -12 -19 -1 -35 14 -18 14 -18 14 0 0 11 3 33 7 49 4 23 1 35 -14 48
-15 14 -22 15 -28 6z"/>
<path d="M5105 4020 c-3 -5 -4 -14 0 -19 3 -5 0 -13 -6 -16 -5 -4 -8 -14 -4
-23 10 -26 16 -90 6 -67 -5 11 -7 23 -5 27 3 4 0 9 -6 13 -14 9 -12 -24 5 -60
16 -35 17 -29 20 78 3 77 2 86 -10 67z"/>
<path d="M7113 3975 c0 -33 2 -45 4 -27 2 18 2 45 0 60 -2 15 -4 0 -4 -33z"/>
<path d="M2479 4013 c-1 -5 0 -18 0 -30 1 -12 -6 -26 -15 -31 -17 -9 -17 -11
-1 -27 12 -11 17 -12 17 -4 0 10 3 10 12 1 20 -20 29 -13 14 11 -9 12 -16 37
-18 55 -2 30 -7 42 -9 25z"/>
<path d="M4783 4006 c-10 -11 -9 -15 4 -20 9 -4 18 -4 21 -1 3 3 0 5 -6 5 -6
0 -9 7 -6 15 7 18 3 19 -13 1z"/>
<path d="M2376 3999 c2 -4 -1 -9 -8 -11 -7 -3 -5 -7 6 -11 10 -4 15 -3 11 3
-3 6 -1 10 4 10 6 0 11 4 11 8 0 5 -7 9 -15 9 -8 0 -12 -4 -9 -8z"/>
<path d="M6596 3999 c3 -5 10 -7 15 -4 11 8 11 7 0 -33 -5 -17 -7 -32 -3 -32
9 0 31 70 23 71 -3 0 -14 2 -24 4 -9 2 -15 -1 -11 -6z"/>
<path d="M2500 3978 c0 -19 2 -20 10 -8 13 19 13 30 0 30 -5 0 -10 -10 -10
-22z"/>
<path d="M3175 3990 c3 -5 8 -10 11 -10 2 0 4 5 4 10 0 6 -5 10 -11 10 -5 0
-7 -4 -4 -10z"/>
<path d="M4923 3981 c-8 -13 -20 -17 -45 -14 l-33 5 29 -17 c21 -11 31 -12 36
-4 4 6 11 10 16 9 4 -1 11 7 15 17 4 10 8 12 8 5 1 -13 21 -7 21 6 0 16 -37
10 -47 -7z"/>
<path d="M5540 3959 c0 -22 3 -38 8 -36 4 3 8 -44 10 -105 2 -91 6 -113 21
-129 20 -22 20 -21 9 116 -1 6 2 34 6 63 5 43 4 52 -9 52 -8 0 -14 6 -12 13 1
6 -4 11 -10 10 -15 -3 -13 38 2 49 6 4 2 8 -7 8 -14 0 -18 -9 -18 -41z"/>
<path d="M6362 3975 c0 -16 2 -22 5 -12 2 9 2 23 0 30 -3 6 -5 -1 -5 -18z"/>
<path d="M4664 3979 c-2 -4 4 -6 15 -4 11 2 22 -3 25 -11 3 -8 17 -13 33 -13
l28 1 -30 8 c-29 7 -29 8 9 9 22 0 37 3 35 5 -8 8 -110 12 -115 5z"/>
<path d="M6341 3974 c0 -11 3 -14 6 -6 3 7 2 16 -1 19 -3 4 -6 -2 -5 -13z"/>
<path d="M3156 3963 c-6 -14 -5 -15 5 -6 7 7 10 15 7 18 -3 3 -9 -2 -12 -12z"/>
<path d="M7234 3968 c-4 -6 -3 -8 4 -4 6 3 13 2 16 -3 9 -14 -20 -21 -35 -8
-11 10 -11 9 0 -5 14 -19 3 -24 -17 -8 -7 5 -6 3 2 -6 13 -15 16 -15 38 0 14
9 29 13 34 9 5 -5 0 2 -10 15 -22 26 -23 26 -32 10z"/>
<path d="M2375 3946 c10 -14 19 -26 22 -26 7 0 -17 39 -28 46 -6 3 -3 -5 6
-20z"/>
<path d="M2845 3960 c-3 -6 1 -13 9 -16 9 -3 13 -11 9 -17 -4 -6 -1 -7 7 -2
10 6 10 11 -3 20 -9 7 -14 15 -10 18 3 4 4 7 0 7 -3 0 -9 -5 -12 -10z"/>
<path d="M6631 3944 c0 -11 3 -14 6 -6 3 7 2 16 -1 19 -3 4 -6 -2 -5 -13z"/>
<path d="M7330 3955 c0 -2 7 -8 15 -15 12 -10 15 -10 15 2 0 8 -7 15 -15 15
-8 0 -15 -1 -15 -2z"/>
<path d="M2590 3940 c-9 -6 -10 -10 -3 -10 6 0 15 5 18 10 8 12 4 12 -15 0z"/>
<path d="M4856 3935 c-11 -8 -15 -15 -9 -15 6 0 16 7 23 15 16 19 11 19 -14 0z"/>
<path d="M2665 3930 c19 -8 73 -14 64 -6 -2 2 -22 6 -44 9 -28 5 -34 4 -20 -3z"/>
<path d="M3143 3912 c-1 -22 0 -24 9 -8 6 10 6 22 2 26 -5 5 -10 -3 -11 -18z"/>
<path d="M4780 3929 c-22 -6 -20 -7 13 -8 38 -1 47 3 25 11 -7 3 -24 1 -38 -3z"/>
<path d="M6340 3926 c0 -9 5 -16 10 -16 6 0 10 4 10 9 0 6 -4 13 -10 16 -5 3
-10 -1 -10 -9z"/>
<path d="M6821 3931 c-8 -5 -16 -18 -18 -28 -3 -19 17 -77 24 -70 2 3 -1 16
-8 30 -8 19 -8 29 1 43 10 18 11 17 7 -3 -3 -13 -1 -23 4 -23 5 0 9 14 9 30 0
34 0 33 -19 21z"/>
<path d="M7290 3930 l-25 -8 27 -1 c56 -2 69 -27 30 -57 -8 -6 -12 -16 -9 -21
4 -6 -7 -16 -23 -23 -33 -14 -60 -40 -41 -40 7 0 9 -5 6 -10 -4 -6 -10 -8 -15
-5 -4 3 -10 -2 -14 -10 -7 -20 -6 -19 35 11 19 15 26 24 17 21 -22 -8 -24 9
-2 17 24 9 36 7 28 -6 -5 -7 -3 -8 5 -4 7 5 10 11 7 14 -10 9 15 31 30 25 18
-7 31 26 15 37 -9 5 -8 9 4 13 9 4 13 3 10 -3 -3 -5 0 -7 8 -4 24 9 13 39 -14
40 -13 1 -25 7 -27 13 -4 12 -16 13 -52 1z"/>
<path d="M5873 3914 c-3 -8 -3 -35 1 -60 4 -29 2 -43 -4 -39 -13 8 -13 -18 1
-49 7 -14 16 -23 22 -19 5 3 4 9 -4 14 -11 6 -11 16 -3 48 7 24 7 38 1 34 -5
-3 -8 13 -6 41 4 48 2 56 -8 30z"/>
<path d="M6612 3904 c-7 -8 -10 -19 -6 -26 5 -7 10 -3 16 12 10 28 7 33 -10
14z"/>
<path d="M2446 3902 c6 -4 10 -14 9 -23 -2 -9 2 -16 9 -16 6 0 18 -4 27 -7 10
-5 16 -2 16 8 0 8 -3 13 -7 11 -4 -3 -15 4 -25 15 -10 11 -23 20 -29 20 -8 0
-8 -2 0 -8z"/>
<path d="M3087 3904 c-3 -3 -1 -17 5 -30 10 -22 12 -22 24 -6 17 23 -9 56 -29
36z m28 -13 c3 -5 0 -13 -6 -17 -7 -4 -9 -3 -5 4 3 5 0 13 -6 15 -9 4 -10 6
-1 6 6 1 14 -3 18 -8z"/>
<path d="M7241 3889 c-13 -11 -18 -19 -10 -19 21 0 42 16 38 28 -2 6 -14 2
-28 -9z"/>
<path d="M6680 3891 c0 -6 4 -13 10 -16 6 -3 7 1 4 9 -7 18 -14 21 -14 7z"/>
<path d="M2795 3880 c4 -6 11 -8 16 -5 14 9 11 15 -7 15 -8 0 -12 -5 -9 -10z"/>
<path d="M5070 3875 c0 -8 4 -15 10 -15 5 0 7 7 4 15 -4 8 -8 15 -10 15 -2 0
-4 -7 -4 -15z"/>
<path d="M3056 3869 c2 -4 -2 -10 -8 -12 -8 -4 -9 -6 -2 -6 6 -1 17 5 23 12 8
10 7 14 -4 14 -8 0 -12 -4 -9 -8z"/>
<path d="M6073 3830 c0 -25 2 -35 4 -22 2 12 2 32 0 45 -2 12 -4 2 -4 -23z"/>
<path d="M2528 3835 c2 -14 9 -22 14 -19 5 3 20 -4 33 -16 13 -12 30 -20 37
-17 9 4 7 6 -4 6 -29 1 -20 17 9 16 14 0 28 7 31 15 5 13 3 13 -11 1 -15 -12
-17 -11 -17 3 0 19 -11 21 -29 4 -11 -11 -12 -10 -6 1 6 10 2 12 -13 7 -12 -4
-23 -2 -28 5 -5 8 -3 9 6 4 9 -5 11 -4 6 3 -14 22 -33 13 -28 -13z"/>
<path d="M7232 3843 c-7 -7 -16 -11 -20 -9 -4 3 -8 -4 -8 -14 0 -10 4 -16 8
-14 4 3 8 1 8 -5 0 -5 18 0 40 12 22 12 38 27 37 32 -5 15 -51 14 -65 -2z m26
-10 c-10 -2 -18 -9 -18 -14 0 -5 -5 -9 -11 -9 -8 0 -8 5 1 15 7 8 20 14 29 14
13 -1 13 -2 -1 -6z"/>
<path d="M2850 3839 c0 -5 -5 -7 -12 -3 -7 5 -8 3 -4 -5 5 -7 15 -10 23 -6 9
3 25 -3 37 -12 15 -13 17 -14 8 -2 -6 9 -8 20 -4 24 4 5 1 5 -5 1 -7 -4 -13
-2 -13 3 0 6 -7 11 -15 11 -8 0 -15 -5 -15 -11z"/>
<path d="M5072 3841 c-14 -8 -27 -86 -16 -102 3 -6 11 -3 20 8 12 16 15 16 27
3 14 -18 22 -18 57 -1 22 10 22 11 3 7 -14 -2 -23 2 -26 13 -4 14 -5 14 -6 -1
-1 -22 -19 -24 -27 -3 -4 8 -10 12 -15 9 -5 -3 -9 1 -9 10 0 8 -3 21 -6 30 -3
9 -1 16 5 16 6 0 12 -10 12 -22 1 -17 3 -18 6 -6 6 24 -9 49 -25 39z"/>
<path d="M2768 3833 c6 -2 18 -2 25 0 6 3 1 5 -13 5 -14 0 -19 -2 -12 -5z"/>
<path d="M2950 3829 c0 -8 -9 -20 -20 -27 -11 -7 -20 -17 -20 -23 0 -6 7 -3
16 5 8 9 21 16 29 16 7 0 12 7 11 15 -3 20 -16 32 -16 14z"/>
<path d="M2983 3833 c4 -6 1 -14 -5 -16 -7 -3 -2 -6 12 -7 l25 -2 -25 -7 c-14
-4 -20 -10 -15 -13 6 -3 20 -1 32 5 l21 12 -26 19 c-14 11 -22 15 -19 9z"/>
<path d="M3017 3829 c7 -7 15 -10 18 -7 3 3 -2 9 -12 12 -14 6 -15 5 -6 -5z"/>
<path d="M5110 3824 c0 -8 5 -12 10 -9 6 3 10 10 10 16 0 5 -4 9 -10 9 -5 0
-10 -7 -10 -16z"/>
<path d="M6182 3815 c0 -11 4 -33 8 -50 7 -27 8 -27 8 -5 0 14 -4 36 -8 50 -6
20 -8 21 -8 5z"/>
<path d="M5742 3800 c0 -14 2 -19 5 -12 2 6 2 18 0 25 -3 6 -5 1 -5 -13z"/>
<path d="M6781 3803 c12 -14 12 -16 0 -8 -11 6 -13 4 -8 -8 3 -9 1 -18 -6 -20
-8 -3 -6 -10 6 -25 12 -13 15 -22 8 -27 -6 -3 -11 -1 -11 6 0 7 -9 2 -19 -10
-14 -16 -21 -18 -24 -9 -4 9 -6 9 -6 1 -2 -21 20 -25 35 -7 13 17 14 16 8 -16
-3 -19 -2 -32 1 -28 4 3 8 12 9 20 1 7 8 24 15 37 12 21 11 26 -5 39 -18 13
-17 14 6 7 14 -4 22 -4 18 0 -4 5 -3 14 4 22 8 11 7 17 -8 28 -26 20 -39 19
-23 -2z"/>
<path d="M2660 3790 c-27 -4 -31 -7 -17 -13 26 -10 77 -9 77 2 0 14 -21 18
-60 11z"/>
<path d="M5111 3784 c0 -11 3 -14 6 -6 3 7 2 16 -1 19 -3 4 -6 -2 -5 -13z"/>
<path d="M2795 3775 c-16 -7 -25 -14 -20 -15 6 -1 -1 -6 -15 -10 -21 -7 -17
-8 20 -9 25 0 55 2 67 5 20 5 20 7 5 25 -19 22 -18 22 -57 4z"/>
<path d="M2940 3780 c-8 -5 -12 -12 -9 -15 4 -3 12 1 19 10 14 17 11 19 -10 5z"/>
<path d="M2730 3776 c0 -2 7 -7 16 -10 8 -3 12 -2 9 4 -6 10 -25 14 -25 6z"/>
<path d="M6172 3750 c0 -19 2 -27 5 -17 2 9 2 25 0 35 -3 9 -5 1 -5 -18z"/>
<path d="M5720 3753 c0 -5 5 -15 10 -23 8 -12 10 -11 10 8 0 12 -4 22 -10 22
-5 0 -10 -3 -10 -7z"/>
<path d="M6520 3734 c0 -22 -10 -29 -33 -25 -5 1 -6 -3 -2 -9 4 -7 13 -6 27 1
18 10 20 9 15 -4 -4 -11 -2 -14 8 -10 8 3 12 10 8 17 -4 6 -9 20 -10 31 -2 17
0 16 11 -5 l14 -25 -1 26 c-3 34 -37 38 -37 3z"/>
<path d="M6920 3695 c0 -38 3 -65 7 -62 7 8 5 119 -3 126 -2 2 -4 -26 -4 -64z"/>
<path d="M7176 3748 c3 -4 9 -8 15 -8 5 0 9 4 9 8 0 5 -7 9 -15 9 -8 0 -12 -4
-9 -9z"/>
<path d="M5080 3740 c0 -5 5 -10 10 -10 6 0 10 5 10 10 0 6 -4 10 -10 10 -5 0
-10 -4 -10 -10z"/>
<path d="M5851 3734 c0 -11 3 -14 6 -6 3 7 2 16 -1 19 -3 4 -6 -2 -5 -13z"/>
<path d="M7135 3723 c-16 -24 -16 -26 -2 -14 16 12 22 8 18 -12 -1 -5 3 -6 9
-2 6 3 8 10 5 15 -3 4 0 10 6 12 7 2 6 8 -4 16 -12 10 -18 8 -32 -15z"/>
<path d="M6061 3704 c0 -11 3 -14 6 -6 3 7 2 16 -1 19 -3 4 -6 -2 -5 -13z"/>
<path d="M6940 3699 c0 -13 5 -31 10 -39 7 -11 8 -5 4 20 -8 43 -14 51 -14 19z"/>
<path d="M6179 3655 l-2 -60 -7 45 c-6 37 -7 30 -7 -38 0 -78 5 -92 32 -99 6
-1 28 -9 50 -18 38 -15 39 -16 8 -12 -18 2 -30 0 -27 -5 6 -10 52 -9 79 2 21
8 20 9 -58 25 -13 2 -34 14 -47 25 -22 19 -23 24 -12 54 14 39 15 105 2 126
-7 11 -10 -2 -11 -45z"/>
<path d="M5701 3681 c-9 -6 -10 -11 -2 -15 8 -5 7 -12 -4 -22 -8 -9 -15 -25
-14 -37 0 -19 2 -18 11 7 8 21 13 25 19 15 6 -9 9 -1 7 24 -1 20 -2 37 -3 37
0 0 -6 -4 -14 -9z"/>
<path d="M5842 3670 c0 -14 2 -19 5 -12 2 6 2 18 0 25 -3 6 -5 1 -5 -13z"/>
<path d="M5883 3683 c-7 -2 -13 -14 -13 -24 0 -28 -19 -61 -30 -54 -6 3 -7 -1
-4 -9 3 -8 1 -23 -5 -34 -7 -13 -7 -19 2 -20 7 -1 28 -4 47 -7 33 -6 34 -5 16
9 -11 9 -26 16 -34 16 -7 0 -10 5 -7 10 4 6 11 8 16 5 5 -4 6 7 3 25 -4 17 -2
30 4 30 5 0 12 14 14 30 3 17 4 30 4 29 -1 0 -7 -3 -13 -6z"/>
<path d="M7024 3669 c-1 -3 2 -6 9 -6 7 0 20 -4 30 -8 10 -4 17 -3 17 4 0 6 6
8 14 5 8 -3 16 -2 19 3 3 4 -15 8 -40 8 -25 0 -47 -3 -49 -6z"/>
<path d="M6213 3635 c0 -22 2 -30 4 -17 2 12 2 30 0 40 -3 9 -5 -1 -4 -23z"/>
<path d="M6310 3655 c-15 -18 -10 -47 10 -52 12 -4 12 -3 2 5 -11 7 -10 12 3
26 9 9 11 16 5 16 -6 0 -8 5 -5 10 9 15 -1 12 -15 -5z"/>
<path d="M6720 3666 c0 -2 8 -10 18 -17 15 -13 16 -12 3 4 -13 16 -21 21 -21
13z"/>
<path d="M6392 3648 c2 -7 -12 -15 -32 -18 l-35 -6 33 -5 c17 -3 32 -1 32 4 0
5 7 4 15 -3 9 -7 18 -10 22 -6 3 3 0 6 -8 6 -10 0 -11 2 -2 8 9 6 7 11 -7 20
-16 10 -20 10 -18 0z"/>
<path d="M5591 3634 c0 -11 3 -14 6 -6 3 7 2 16 -1 19 -3 4 -6 -2 -5 -13z"/>
<path d="M6970 3631 c-7 -14 -7 -22 2 -27 7 -5 8 -3 3 6 -6 10 -4 12 10 6 14
-5 16 -4 7 7 -7 8 -9 17 -5 20 3 4 3 7 0 7 -3 0 -11 -9 -17 -19z"/>
<path d="M6727 3629 c7 -7 15 -10 18 -7 3 3 -2 9 -12 12 -14 6 -15 5 -6 -5z"/>
<path d="M6240 3605 c0 -8 4 -15 10 -15 5 0 7 7 4 15 -4 8 -8 15 -10 15 -2 0
-4 -7 -4 -15z"/>
<path d="M6662 3588 c-7 -7 -12 -17 -12 -22 0 -6 5 -4 10 4 9 13 10 13 11 0 1
-8 1 -19 0 -23 -1 -5 3 -6 9 -2 7 4 7 12 0 24 -5 10 -6 21 -3 25 3 3 4 6 2 6
-3 0 -10 -5 -17 -12z"/>
<path d="M5650 3580 c8 -5 20 -10 25 -10 6 0 3 5 -5 10 -8 5 -19 10 -25 10 -5
0 -3 -5 5 -10z"/>
<path d="M6051 3564 c0 -11 3 -14 6 -6 3 7 2 16 -1 19 -3 4 -6 -2 -5 -13z"/>
<path d="M6220 3545 c0 -8 4 -15 10 -15 5 0 7 7 4 15 -4 8 -8 15 -10 15 -2 0
-4 -7 -4 -15z"/>
<path d="M6010 3526 c0 -2 8 -10 18 -17 15 -13 16 -12 3 4 -13 16 -21 21 -21
13z"/>
<path d="M5930 3510 c0 -6 7 -10 15 -10 8 0 15 2 15 4 0 2 -7 6 -15 10 -8 3
-15 1 -15 -4z"/>
<path d="M6295 3495 c22 -8 45 -14 50 -14 18 1 -49 28 -70 28 -11 0 -2 -6 20
-14z"/>
<path d="M6314 3459 c-3 -5 27 -9 67 -9 40 0 70 2 68 5 -10 9 -129 13 -135 4z"/>
<path d="M6488 3463 c7 -3 16 -2 19 1 4 3 -2 6 -13 5 -11 0 -14 -3 -6 -6z"/>
</g>
</svg>
